<svg width="144" height="144" viewBox="0 0 144 144" fill="none" xmlns="http://www.w3.org/2000/svg">
<path d="M96 15.805C98.8098 15.805 103.805 14.244 105.951 13.4635H110.049L125.854 29.2684L134.049 42.7318L141.073 60.8781L138.732 66.7318C137.171 70.6342 134.049 79.2586 134.049 82.5367C134.049 86.6342 134.634 90.7318 134.049 91.9025C133.58 92.8391 129.561 95.4147 127.61 96.5854V100.098C126.829 101.073 124.566 103.844 121.756 107.122C118.244 111.22 112.39 113.561 111.22 112.39C110.049 111.22 110.049 104.195 110.049 100.098V85.4635C110.049 83.7074 108.293 79.6098 108.293 78.4391C108.293 77.5025 107.512 74.1464 107.122 72.5855C106.732 72.1952 105.132 71.1806 101.854 70.244C97.7561 69.0733 93.6585 71.4147 91.3171 72.0001C88.9756 72.5855 88.9756 70.244 85.4634 70.244C81.9512 70.244 78.439 63.2196 77.8537 62.6342C77.2683 62.0489 76.6829 57.9513 76.6829 56.1952C76.6829 54.4391 75.5122 51.5123 75.5122 50.3415C75.5122 49.1708 77.8537 46.244 79.6098 44.4879C81.0146 43.083 82.9268 41.9513 83.7073 41.5611V37.4635C83.7073 35.7074 82.5366 35.122 80.7805 33.9513C79.0244 32.7806 82.5366 29.2684 82.5366 26.9269C82.5366 25.0537 84.0976 24.9757 84.8781 25.1708C84.2927 24.9757 83.0049 24.1172 82.5366 22.244C82.0683 20.3708 84.2927 20.683 85.4634 21.0733L88.9756 15.805H96Z" fill="#93C9FE" stroke="#93C9FE"/>
<path d="M42.7317 15.805C41.3268 16.7415 37.6585 13.0659 36.8781 11.7001C31.4146 15.6025 21.4244 25.2879 18.1463 28.0976C14.0488 31.6098 9.95122 42.1464 7.60976 44.4879C5.73659 46.361 4.48781 58.5367 4.09756 64.3903L6.43903 67.3172C7.21952 67.3172 8.78049 67.4342 8.78049 67.9025C8.78049 68.3708 9.56098 69.6586 9.95122 70.244L12.8781 72.0001C12.8781 72.7806 12.9951 74.5757 13.4634 75.5123C13.9317 76.4489 16 77.0732 16.9756 77.2684V81.3659C16.9756 83.122 17.561 86.0489 17.561 86.6342C17.561 87.2196 15.2195 88.9757 15.8049 90.1464C16.3902 91.3172 15.2195 94.8294 15.2195 95.4147C15.2195 96.0001 22.2439 105.951 23.4146 106.537C24.5854 107.122 28.0976 108.293 29.2683 108.878C30.439 109.464 36.8781 125.854 38.6341 128.195C40.3902 130.537 48 135.805 50.9268 135.805C53.8537 135.805 53.2683 134.634 53.2683 133.464C53.2683 132.293 49.1707 128.195 49.7561 128.195C50.2244 128.195 52.2927 127.415 53.2683 127.024C52.8781 126.049 51.9805 123.981 51.5122 123.512C50.9268 122.927 52.6829 118.244 53.2683 117.073C53.8537 115.903 57.9512 112.39 59.122 111.22C60.0585 110.283 60.2927 106.537 60.2927 104.781C61.2683 103.024 63.3366 99.044 63.8049 97.1708C64.3902 94.8293 62.6342 93.0733 62.0488 91.9025C61.4634 90.7318 56.1951 90.7318 55.0244 90.7318C54.0878 90.7318 48.7805 88.0001 46.2439 86.6342C45.4634 85.6586 43.4342 83.4733 41.561 82.5367C39.6878 81.6001 38.439 81.7562 38.0488 81.9513C37.4634 81.3659 36.0585 80.0781 35.122 79.6098C33.9512 79.0245 28.0976 77.8537 28.0976 76.683C28.0976 75.7464 22.2439 73.5611 19.3171 72.5854C18.9268 71.4147 18.1463 68.722 18.1463 67.3172C18.1463 65.9123 16.1951 64.7806 15.2195 64.3903C14.0488 64.0001 11.5902 62.9854 11.122 62.0489C10.5366 60.8781 11.7073 56.7806 12.878 53.8537C13.8146 51.5123 16.7805 51.3171 18.1463 51.5123C18.3415 53.4635 18.8488 57.483 19.3171 57.9513C19.9024 58.5367 22.2439 57.3659 23.4146 55.6098C24.3512 54.205 23.8049 50.3415 23.4146 48.5854C25.1707 47.4147 28.8 44.8391 29.2683 43.9025C29.8537 42.7318 30.439 40.9757 31.0244 39.2196C31.6098 37.4635 33.3659 39.2196 36.2927 39.2196C39.2195 39.2196 35.7073 35.122 36.8781 35.122C38.0488 35.122 39.8049 35.122 40.9756 34.5367C42.1463 33.9513 45.0732 32.1952 46.2439 31.6098C47.4146 31.0245 46.2439 30.4391 45.0732 29.2684C43.9024 28.0976 48.5854 26.9269 49.7561 26.3415C50.9268 25.7562 51.5122 24.0001 51.5122 21.6586C51.5122 19.7854 50.3415 16.5854 49.7561 15.2196H47.4146C46.439 15.0245 44.1366 14.8684 42.7317 15.805Z" fill="#93C9FE" stroke="#93C9FE"/>
<circle cx="72" cy="72" r="70" stroke="#93C9FE" stroke-width="4"/>
<path d="M50.7875 61.1074C55.0404 56.8545 61.9357 56.8545 66.1887 61.1074L86.8689 81.7877L71.4677 97.1889L50.7874 76.5086C46.5345 72.2557 46.5345 65.3604 50.7875 61.1074Z" fill="#0078E8" stroke="#0078E8" stroke-width="3"/>
<path d="M92.5371 60.7183C96.79 64.9713 96.79 71.8666 92.5371 76.1195L71.4677 97.1889L56.0665 81.7877L77.1358 60.7183C81.3888 56.4654 88.2841 56.4654 92.5371 60.7183Z" fill="#0078E8" stroke="#0078E8" stroke-width="3"/>
<path d="M52.0288 57.3834C56.2818 53.1305 63.1771 53.1305 67.43 57.3834L88.1103 78.0637L72.7091 93.4649L52.0288 72.7846C47.7759 68.5317 47.7759 61.6364 52.0288 57.3834Z" fill="white" stroke="#0078E8" stroke-width="3"/>
<path d="M93.7784 56.9943C98.0313 61.2473 98.0313 68.1426 93.7784 72.3955L72.7091 93.4649L57.3079 78.0637L78.3772 56.9944C82.6301 52.7414 89.5255 52.7414 93.7784 56.9943Z" fill="white" stroke="#0078E8" stroke-width="3"/>
</svg>
