<svg width="494" height="606" viewBox="0 0 494 606" fill="none" xmlns="http://www.w3.org/2000/svg">
<rect x="233.888" y="84.0688" width="18.2017" height="32.5236" rx="1.56498" stroke="#93C9FE" stroke-width="1.04332"/>
<rect x="240.527" y="86.2327" width="4.92315" height="0.895119" rx="0.447559" fill="#93C9FE"/>
<rect x="241.87" y="111.743" width="2.68536" height="2.68536" rx="1.34268" fill="#93C9FE"/>
<path d="M404.591 114.876C406.205 107.473 404.714 101.753 403.669 97.7148" stroke="#93C9FE" stroke-width="1.14303"/>
<path d="M411.57 91.8155C408.007 90.9607 404.943 94.8223 403.857 96.86C404.932 97.8133 407.781 99.9071 410.575 100.655C413.368 101.404 418.494 99.0342 420.708 97.7559C419.147 96.1319 415.134 92.6702 411.57 91.8155Z" fill="#93C9FE" stroke="#93C9FE" stroke-width="1.00499"/>
<path d="M399.03 90.0753C402.824 93.07 403.108 95.3768 403.611 97.8893C401.713 97.0223 396.576 98.2927 393.518 95.9492C390.459 93.6056 388.9 89.1079 388.503 87.152C391.518 88.3979 395.236 87.0806 399.03 90.0753Z" fill="#93C9FE" stroke="#93C9FE" stroke-width="1.00499"/>
<mask id="path-7-inside-1" fill="white">
<path fill-rule="evenodd" clip-rule="evenodd" d="M109.775 102.376L89.5552 87.4699L92.3548 112.433L98.2142 105.867L102.344 113.019L105.748 111.054L101.706 104.053L109.775 102.376Z"/>
</mask>
<path fill-rule="evenodd" clip-rule="evenodd" d="M109.775 102.376L89.5552 87.4699L92.3548 112.433L98.2142 105.867L102.344 113.019L105.748 111.054L101.706 104.053L109.775 102.376Z" fill="#93C9FE"/>
<path d="M89.5552 87.4699L90.1743 86.6301L88.2522 85.2131L88.5184 87.5862L89.5552 87.4699ZM109.775 102.376L109.987 103.398L112.274 102.922L110.394 101.536L109.775 102.376ZM92.3548 112.433L91.318 112.55L91.5783 114.871L93.1333 113.128L92.3548 112.433ZM98.2142 105.867L99.1177 105.345L98.3963 104.095L97.4357 105.172L98.2142 105.867ZM102.344 113.019L101.44 113.541L101.962 114.444L102.865 113.923L102.344 113.019ZM105.748 111.054L106.269 111.957L107.173 111.436L106.651 110.532L105.748 111.054ZM101.706 104.053L101.493 103.032L100.081 103.325L100.802 104.575L101.706 104.053ZM88.9361 88.3097L109.155 103.216L110.394 101.536L90.1743 86.6301L88.9361 88.3097ZM93.3916 112.317L90.592 87.3536L88.5184 87.5862L91.318 112.55L93.3916 112.317ZM97.4357 105.172L91.5763 111.739L93.1333 113.128L98.9927 106.561L97.4357 105.172ZM103.247 112.497L99.1177 105.345L97.3107 106.388L101.44 113.541L103.247 112.497ZM105.226 110.15L101.822 112.116L102.865 113.923L106.269 111.957L105.226 110.15ZM100.802 104.575L104.844 111.576L106.651 110.532L102.609 103.532L100.802 104.575ZM109.562 101.355L101.493 103.032L101.918 105.075L109.987 103.398L109.562 101.355Z" fill="#93C9FE" mask="url(#path-7-inside-1)"/>
<mask id="path-9-inside-2" fill="white">
<path fill-rule="evenodd" clip-rule="evenodd" d="M330.599 184.134L310.38 169.227L313.179 194.191L319.039 187.624L323.168 194.777L326.572 192.811L322.53 185.811L330.599 184.134Z"/>
</mask>
<path fill-rule="evenodd" clip-rule="evenodd" d="M330.599 184.134L310.38 169.227L313.179 194.191L319.039 187.624L323.168 194.777L326.572 192.811L322.53 185.811L330.599 184.134Z" fill="#93C9FE"/>
<path d="M310.38 169.227L310.999 168.388L309.077 166.971L309.343 169.344L310.38 169.227ZM330.599 184.134L330.811 185.155L333.098 184.68L331.218 183.294L330.599 184.134ZM313.179 194.191L312.142 194.307L312.403 196.628L313.958 194.886L313.179 194.191ZM319.039 187.624L319.942 187.102L319.221 185.853L318.26 186.93L319.039 187.624ZM323.168 194.777L322.265 195.298L322.786 196.202L323.69 195.68L323.168 194.777ZM326.572 192.811L327.094 193.715L327.997 193.193L327.475 192.29L326.572 192.811ZM322.53 185.811L322.318 184.789L320.905 185.083L321.627 186.332L322.53 185.811ZM309.76 170.067L329.98 184.974L331.218 183.294L310.999 168.388L309.76 170.067ZM314.216 194.075L311.416 169.111L309.343 169.344L312.142 194.307L314.216 194.075ZM318.26 186.93L312.401 193.496L313.958 194.886L319.817 188.319L318.26 186.93ZM324.072 194.255L319.942 187.102L318.135 188.146L322.265 195.298L324.072 194.255ZM326.05 191.908L322.646 193.873L323.69 195.68L327.094 193.715L326.05 191.908ZM321.627 186.332L325.668 193.333L327.475 192.29L323.434 185.289L321.627 186.332ZM330.387 183.112L322.318 184.789L322.742 186.832L330.811 185.155L330.387 183.112Z" fill="#93C9FE" mask="url(#path-9-inside-2)"/>
<circle cx="12.4148" cy="171.145" r="2.00156" transform="rotate(27.0062 12.4148 171.145)" fill="#93C9FE"/>
<circle cx="7.7847" cy="182.264" r="2.00156" transform="rotate(27.0062 7.7847 182.264)" fill="#93C9FE"/>
<circle cx="21.9643" cy="182.925" r="2.00156" transform="rotate(27.0062 21.9643 182.925)" fill="#93C9FE"/>
<circle cx="23.5774" cy="197.536" r="2.00156" transform="rotate(27.0062 23.5774 197.536)" fill="#93C9FE"/>
<circle cx="33.8623" cy="175.855" r="2.00156" transform="rotate(27.0062 33.8623 175.855)" fill="#93C9FE"/>
<path d="M33.9295 176.062L12.4122 171.489L7.78196 182.609L23.5706 197.753M33.9295 176.062L23.5706 197.753M33.9295 176.062L22.2386 183.064L23.5706 197.753" stroke="#93C9FE" stroke-width="0.881202"/>
<path d="M7.78205 182.609L22.306 183.271L12.5521 171.215" stroke="#93C9FE" stroke-width="0.881202"/>
<path d="M165.366 193.125H173.465V196.22C173.465 197.357 172.543 198.28 171.406 198.28H167.426C166.288 198.28 165.366 197.357 165.366 196.22V193.125Z" fill="#93C9FE"/>
<path d="M167.575 197.543H171.256V197.543C171.256 198.356 170.597 199.016 169.784 199.016H169.047C168.234 199.016 167.575 198.356 167.575 197.543V197.543Z" fill="#93C9FE"/>
<mask id="path-20-inside-3" fill="white">
<path fill-rule="evenodd" clip-rule="evenodd" d="M178.417 182.839C179.928 180.903 180.828 178.468 180.828 175.822C180.828 169.519 175.719 164.409 169.416 164.409C163.113 164.409 158.003 169.519 158.003 175.822C158.003 178.468 158.903 180.903 160.414 182.838L165.366 192.389H173.465L178.417 182.839Z"/>
</mask>
<path d="M178.417 182.839L177.335 181.994L177.257 182.094L177.198 182.207L178.417 182.839ZM160.414 182.838L161.633 182.206L161.574 182.094L161.496 181.994L160.414 182.838ZM165.366 192.389L164.147 193.021L164.531 193.762H165.366V192.389ZM173.465 192.389V193.762H174.3L174.684 193.021L173.465 192.389ZM179.455 175.822C179.455 178.151 178.664 180.291 177.335 181.994L179.5 183.684C181.192 181.515 182.202 178.785 182.202 175.822H179.455ZM169.416 165.783C174.96 165.783 179.455 170.277 179.455 175.822H182.202C182.202 168.761 176.477 163.036 169.416 163.036V165.783ZM159.376 175.822C159.376 170.277 163.871 165.783 169.416 165.783V163.036C162.354 163.036 156.63 168.761 156.63 175.822H159.376ZM161.496 181.994C160.167 180.291 159.376 178.151 159.376 175.822H156.63C156.63 178.785 157.639 181.515 159.331 183.683L161.496 181.994ZM166.585 191.757L161.633 182.206L159.195 183.471L164.147 193.021L166.585 191.757ZM173.465 191.016H165.366V193.762H173.465V191.016ZM177.198 182.207L172.246 191.757L174.684 193.021L179.636 183.471L177.198 182.207Z" fill="#93C9FE" mask="url(#path-20-inside-3)"/>
<path d="M168.145 189.399C167.654 185.227 165.2 178.355 164.832 176.882C164.51 175.594 164.322 173.569 166.304 173.569C167.777 173.569 169.423 177.618 167.777 177.618C165.936 177.618 168.521 173.245 169.994 173.245C171.466 173.245 171.827 175.041 171.827 175.041C171.827 175.041 172.931 177.618 171.458 177.618C169.986 177.618 173.152 172.832 174.035 174.305C174.919 175.778 171.581 184.368 170.722 189.399" stroke="#93C9FE" stroke-width="0.686573"/>
<mask id="path-23-inside-4" fill="white">
<path fill-rule="evenodd" clip-rule="evenodd" d="M475.828 170.228C472.789 170.228 470.198 172.151 469.208 174.847H467.927C463.913 174.847 460.557 177.667 459.733 181.434C456.627 181.706 454.191 184.313 454.191 187.489C454.191 190.846 456.912 193.567 460.269 193.567H487.498C490.855 193.567 493.576 190.846 493.576 187.489C493.576 184.547 491.485 182.093 488.708 181.532C488.712 181.451 488.713 181.371 488.713 181.29C488.713 178.403 486.373 176.063 483.486 176.063C483.326 176.063 483.167 176.07 483.01 176.084C482.924 176.031 482.838 175.98 482.75 175.93C482.121 172.681 479.261 170.228 475.828 170.228Z"/>
</mask>
<path d="M469.208 174.847V176.099H470.082L470.383 175.279L469.208 174.847ZM459.733 181.434L459.842 182.682L460.759 182.602L460.956 181.702L459.733 181.434ZM488.708 181.532L487.457 181.475L487.408 182.546L488.46 182.759L488.708 181.532ZM483.01 176.084L482.355 177.151L482.709 177.368L483.123 177.331L483.01 176.084ZM482.75 175.93L481.521 176.168L481.631 176.735L482.133 177.02L482.75 175.93ZM470.383 175.279C471.198 173.06 473.33 171.48 475.828 171.48V168.976C472.247 168.976 469.198 171.243 468.033 174.415L470.383 175.279ZM467.927 176.099H469.208V173.595H467.927V176.099ZM460.956 181.702C461.657 178.497 464.513 176.099 467.927 176.099V173.595C463.312 173.595 459.457 176.837 458.51 181.167L460.956 181.702ZM455.443 187.489C455.443 184.968 457.377 182.897 459.842 182.682L459.624 180.187C455.877 180.514 452.939 183.658 452.939 187.489H455.443ZM460.269 192.315C457.603 192.315 455.443 190.154 455.443 187.489H452.939C452.939 191.537 456.22 194.819 460.269 194.819V192.315ZM487.498 192.315H460.269V194.819H487.498V192.315ZM492.324 187.489C492.324 190.154 490.163 192.315 487.498 192.315V194.819C491.546 194.819 494.828 191.537 494.828 187.489H492.324ZM488.46 182.759C490.665 183.204 492.324 185.154 492.324 187.489H494.828C494.828 183.939 492.306 180.981 488.956 180.304L488.46 182.759ZM487.462 181.29C487.462 181.352 487.46 181.413 487.457 181.475L489.959 181.589C489.963 181.489 489.965 181.39 489.965 181.29H487.462ZM483.486 177.315C485.682 177.315 487.462 179.094 487.462 181.29H489.965C489.965 177.711 487.065 174.811 483.486 174.811V177.315ZM483.123 177.331C483.242 177.32 483.364 177.315 483.486 177.315V174.811C483.288 174.811 483.092 174.82 482.898 174.837L483.123 177.331ZM482.133 177.02C482.208 177.062 482.282 177.106 482.355 177.151L483.666 175.017C483.567 174.957 483.468 174.898 483.367 174.841L482.133 177.02ZM475.828 171.48C478.65 171.48 481.004 173.497 481.521 176.168L483.979 175.692C483.238 171.866 479.872 168.976 475.828 168.976V171.48Z" fill="#93C9FE" mask="url(#path-23-inside-4)"/>
<path d="M172.397 6.53315C173 6.53315 174.071 6.19839 174.531 6.03101H175.41L178.8 9.42045L180.557 12.3078L182.063 16.1993L181.561 17.4547C181.227 18.2916 180.557 20.1411 180.557 20.8441C180.557 21.7229 180.683 22.6016 180.557 22.8527C180.457 23.0535 179.595 23.6059 179.176 23.857V24.6102C179.009 24.8194 178.523 25.4136 177.921 26.1166C177.168 26.9953 175.912 27.4975 175.661 27.2464C175.41 26.9953 175.41 25.4889 175.41 24.6102V21.4718C175.41 21.0952 175.033 20.2165 175.033 19.9654C175.033 19.7645 174.866 19.0448 174.782 18.71C174.699 18.6263 174.356 18.4088 173.653 18.2079C172.774 17.9568 171.895 18.459 171.393 18.5845C170.891 18.71 170.891 18.2079 170.138 18.2079C169.384 18.2079 168.631 16.7015 168.506 16.5759C168.38 16.4504 168.255 15.5717 168.255 15.1951C168.255 14.8185 168.004 14.1908 168.004 13.9397C168.004 13.6886 168.506 13.061 168.882 12.6844C169.184 12.3831 169.594 12.1404 169.761 12.0567V11.1779C169.761 10.8013 169.51 10.6758 169.133 10.4247C168.757 10.1737 169.51 9.42045 169.51 8.91831C169.51 8.5166 169.845 8.49986 170.012 8.54171C169.887 8.49986 169.61 8.31574 169.51 7.91403C169.41 7.51232 169.887 7.57927 170.138 7.66296L170.891 6.53315H172.397Z" fill="#93C9FE" stroke="#93C9FE" stroke-width="0.327224"/>
<path d="M160.974 6.5329C160.672 6.73376 159.886 5.9455 159.718 5.65259C158.547 6.48949 156.404 8.56657 155.701 9.16914C154.822 9.92235 153.944 12.182 153.442 12.6841C153.04 13.0858 152.772 15.697 152.688 16.9523L153.19 17.58C153.358 17.58 153.693 17.6051 153.693 17.7055C153.693 17.8059 153.86 18.0821 153.944 18.2077L154.571 18.5843C154.571 18.7516 154.596 19.1366 154.697 19.3375C154.797 19.5383 155.241 19.6722 155.45 19.7141V20.5928C155.45 20.9694 155.576 21.5971 155.576 21.7226C155.576 21.8482 155.074 22.2248 155.199 22.4758C155.325 22.7269 155.074 23.4801 155.074 23.6057C155.074 23.7312 156.58 25.8653 156.831 25.9908C157.082 26.1164 157.835 26.3674 158.086 26.493C158.337 26.6185 159.718 30.1335 160.095 30.6356C160.472 31.1378 162.103 32.2676 162.731 32.2676C163.359 32.2676 163.233 32.0165 163.233 31.7654C163.233 31.5144 162.355 30.6356 162.48 30.6356C162.581 30.6356 163.024 30.4682 163.233 30.3845C163.15 30.1753 162.957 29.7318 162.857 29.6313C162.731 29.5058 163.108 28.5015 163.233 28.2505C163.359 27.9994 164.238 27.2462 164.489 26.9951C164.689 26.7942 164.74 25.9908 164.74 25.6142C164.949 25.2376 165.392 24.384 165.493 23.9823C165.618 23.4801 165.242 23.1035 165.116 22.8524C164.991 22.6014 163.861 22.6014 163.61 22.6014C163.409 22.6014 162.271 22.0155 161.727 21.7226C161.559 21.5134 161.124 21.0447 160.723 20.8439C160.321 20.643 160.053 20.6765 159.969 20.7184C159.844 20.5928 159.543 20.3166 159.342 20.2162C159.091 20.0907 157.835 19.8396 157.835 19.5885C157.835 19.3877 156.58 18.919 155.952 18.7098C155.869 18.4587 155.701 17.8813 155.701 17.58C155.701 17.2787 155.283 17.036 155.074 16.9523C154.822 16.8686 154.295 16.651 154.195 16.4502C154.069 16.1991 154.32 15.3203 154.571 14.6927C154.772 14.1905 155.408 14.1487 155.701 14.1905C155.743 14.609 155.852 15.471 155.952 15.5714C156.078 15.697 156.58 15.4459 156.831 15.0693C157.032 14.768 156.915 13.9395 156.831 13.5629C157.208 13.3118 157.986 12.7594 158.086 12.5586C158.212 12.3075 158.337 11.9309 158.463 11.5543C158.588 11.1777 158.965 11.5543 159.593 11.5543C160.22 11.5543 159.467 10.6756 159.718 10.6756C159.969 10.6756 160.346 10.6756 160.597 10.55C160.848 10.4245 161.476 10.0479 161.727 9.92235C161.978 9.79681 161.727 9.67128 161.476 9.42021C161.225 9.16914 162.229 8.91807 162.48 8.79253C162.731 8.667 162.857 8.29039 162.857 7.78825C162.857 7.38654 162.606 6.70028 162.48 6.40737H161.978C161.769 6.36552 161.275 6.33205 160.974 6.5329Z" fill="#93C9FE" stroke="#93C9FE" stroke-width="0.327224"/>
<circle cx="167.25" cy="18.5846" r="14.7864" stroke="#93C9FE" stroke-width="1.3089"/>
<mask id="path-28-inside-5" fill="white">
<path fill-rule="evenodd" clip-rule="evenodd" d="M12.5054 6.41297C9.64463 3.25199 5.00638 3.25199 2.14559 6.41297C-0.715197 9.57395 -0.715197 14.6989 2.14559 17.8599L4.85721 20.856L4.84467 20.8699L15.2045 32.3168L15.217 32.3029L15.2295 32.3167L25.5893 20.8698L25.5769 20.856L28.2884 17.86C31.1492 14.699 31.1492 9.57406 28.2884 6.41308C25.4276 3.2521 20.7894 3.2521 17.9286 6.41308L15.217 9.40913L12.5054 6.41297Z"/>
</mask>
<path d="M2.14559 6.41297L1.00985 5.38508L1.00985 5.38508L2.14559 6.41297ZM12.5054 6.41297L13.6412 5.38508L13.6412 5.38508L12.5054 6.41297ZM2.14559 17.8599L3.28133 16.832L3.28133 16.832L2.14559 17.8599ZM4.85721 20.856L5.99293 21.8839L6.92324 20.8561L5.99295 19.8282L4.85721 20.856ZM4.84467 20.8699L3.70895 19.842L2.77864 20.8699L3.70892 21.8978L4.84467 20.8699ZM15.2045 32.3168L14.0688 33.3447L15.2045 34.5996L16.3402 33.3447L15.2045 32.3168ZM15.217 32.3029L16.3528 31.275L15.217 30.0202L14.0813 31.2751L15.217 32.3029ZM15.2295 32.3167L14.0938 33.3446L15.2295 34.5995L16.3652 33.3446L15.2295 32.3167ZM25.5893 20.8698L26.7251 21.8977L27.6554 20.8697L26.725 19.8419L25.5893 20.8698ZM25.5769 20.856L24.4411 19.8282L23.5108 20.8561L24.4412 21.884L25.5769 20.856ZM28.2884 17.86L29.4241 18.8879L29.4241 18.8879L28.2884 17.86ZM28.2884 6.41308L29.4241 5.38519L29.4241 5.38519L28.2884 6.41308ZM17.9286 6.41308L16.7928 5.38519L16.7928 5.38519L17.9286 6.41308ZM15.217 9.40913L14.0813 10.437L15.217 11.6919L16.3528 10.437L15.217 9.40913ZM3.28133 7.44085C5.53402 4.95179 9.11699 4.95178 11.3697 7.44085L13.6412 5.38508C10.1723 1.5522 4.47873 1.5522 1.00985 5.38508L3.28133 7.44085ZM3.28133 16.832C0.948643 14.2545 0.948643 10.0183 3.28133 7.44085L1.00985 5.38508C-2.37904 9.12957 -2.37904 15.1433 1.00985 18.8878L3.28133 16.832ZM5.99295 19.8282L3.28133 16.832L1.00985 18.8878L3.72147 21.8839L5.99295 19.8282ZM5.98039 21.8978L5.99293 21.8839L3.72149 19.8281L3.70895 19.842L5.98039 21.8978ZM16.3402 31.2889L5.98041 19.842L3.70892 21.8978L14.0688 33.3447L16.3402 31.2889ZM14.0813 31.2751L14.0688 31.2889L16.3402 33.3447L16.3528 33.3308L14.0813 31.2751ZM16.3652 31.2888L16.3528 31.275L14.0813 33.3309L14.0938 33.3446L16.3652 31.2888ZM24.4536 19.8419L14.0937 31.2888L16.3652 33.3446L26.7251 21.8977L24.4536 19.8419ZM24.4412 21.884L24.4536 21.8977L26.725 19.8419L26.7126 19.8281L24.4412 21.884ZM27.1527 16.8321L24.4411 19.8282L26.7126 21.8839L29.4241 18.8879L27.1527 16.8321ZM27.1527 7.44096C29.4853 10.0184 29.4853 14.2546 27.1527 16.8321L29.4241 18.8879C32.813 15.1434 32.813 9.12968 29.4241 5.38519L27.1527 7.44096ZM19.0643 7.44096C21.317 4.95189 24.9 4.95189 27.1527 7.44096L29.4241 5.38519C25.9553 1.55231 20.2617 1.55231 16.7928 5.38519L19.0643 7.44096ZM16.3528 10.437L19.0643 7.44096L16.7928 5.38519L14.0813 8.38124L16.3528 10.437ZM11.3697 7.44085L14.0813 10.437L16.3528 8.38124L13.6412 5.38508L11.3697 7.44085Z" fill="#93C9FE" mask="url(#path-28-inside-5)"/>
<path d="M16.1122 9.8606L6.26587 20.602" stroke="#93C9FE" stroke-width="1.53104"/>
<rect x="304.068" y="4.04248" width="5.37071" height="5.37071" fill="#93C9FE"/>
<rect x="327.341" y="4.04224" width="5.37071" height="5.37071" fill="#93C9FE"/>
<rect x="327.341" y="27.7627" width="5.37071" height="5.37071" fill="#93C9FE"/>
<rect x="304.068" y="27.7627" width="5.37071" height="5.37071" fill="#93C9FE"/>
<rect x="307.588" y="7.5622" width="22.0513" height="22.0513" stroke="#93C9FE" stroke-width="1.66932"/>
<path d="M314.487 14.3344H317.219V23.175H318.893V14.3344H321.61V12.9686H314.487V14.3344Z" fill="#93C9FE"/>
<circle cx="465.194" cy="7.63042" r="2.00156" transform="rotate(27.0062 465.194 7.63042)" fill="#93C9FE"/>
<circle cx="460.563" cy="18.7501" r="2.00156" transform="rotate(27.0062 460.563 18.7501)" fill="#93C9FE"/>
<circle cx="474.743" cy="19.41" r="2.00156" transform="rotate(27.0062 474.743 19.41)" fill="#93C9FE"/>
<circle cx="476.356" cy="34.0215" r="2.00156" transform="rotate(27.0062 476.356 34.0215)" fill="#93C9FE"/>
<circle cx="486.641" cy="12.3404" r="2.00156" transform="rotate(27.0062 486.641 12.3404)" fill="#93C9FE"/>
<path d="M486.708 12.5473L465.191 7.97473L460.561 19.094L476.349 34.2382M486.708 12.5473L476.349 34.2382M486.708 12.5473L475.017 19.5497L476.349 34.2382" stroke="#93C9FE" stroke-width="0.881202"/>
<path d="M460.561 19.0941L475.085 19.7568L465.331 7.70044" stroke="#93C9FE" stroke-width="0.881202"/>
<path d="M411.617 251.795C412.22 251.795 413.291 251.46 413.751 251.292H414.63L418.019 254.682L419.777 257.569L421.283 261.461L420.781 262.716C420.446 263.553 419.777 265.403 419.777 266.106C419.777 266.984 419.902 267.863 419.777 268.114C419.676 268.315 418.814 268.867 418.396 269.118V269.872C418.229 270.081 417.743 270.675 417.141 271.378C416.387 272.257 415.132 272.759 414.881 272.508C414.63 272.257 414.63 270.75 414.63 269.872V266.733C414.63 266.357 414.253 265.478 414.253 265.227C414.253 265.026 414.086 264.306 414.002 263.972C413.919 263.888 413.575 263.67 412.872 263.469C411.994 263.218 411.115 263.72 410.613 263.846C410.111 263.972 410.111 263.469 409.357 263.469C408.604 263.469 407.851 261.963 407.726 261.837C407.6 261.712 407.474 260.833 407.474 260.457C407.474 260.08 407.223 259.452 407.223 259.201C407.223 258.95 407.726 258.322 408.102 257.946C408.403 257.645 408.813 257.402 408.981 257.318V256.439C408.981 256.063 408.73 255.937 408.353 255.686C407.977 255.435 408.73 254.682 408.73 254.18C408.73 253.778 409.065 253.761 409.232 253.803C409.106 253.761 408.83 253.577 408.73 253.176C408.629 252.774 409.106 252.841 409.357 252.924L410.111 251.795H411.617Z" fill="#93C9FE" stroke="#93C9FE" stroke-width="0.327224"/>
<path d="M400.193 251.794C399.892 251.995 399.105 251.207 398.938 250.914C397.766 251.751 395.624 253.828 394.921 254.431C394.042 255.184 393.163 257.443 392.661 257.946C392.26 258.347 391.992 260.958 391.908 262.214L392.41 262.841C392.578 262.841 392.912 262.867 392.912 262.967C392.912 263.067 393.08 263.344 393.163 263.469L393.791 263.846C393.791 264.013 393.816 264.398 393.917 264.599C394.017 264.8 394.461 264.934 394.67 264.976V265.854C394.67 266.231 394.795 266.859 394.795 266.984C394.795 267.11 394.293 267.486 394.419 267.737C394.544 267.988 394.293 268.742 394.293 268.867C394.293 268.993 395.8 271.127 396.051 271.252C396.302 271.378 397.055 271.629 397.306 271.754C397.557 271.88 398.938 275.395 399.315 275.897C399.691 276.399 401.323 277.529 401.951 277.529C402.579 277.529 402.453 277.278 402.453 277.027C402.453 276.776 401.574 275.897 401.7 275.897C401.8 275.897 402.244 275.73 402.453 275.646C402.369 275.437 402.177 274.993 402.076 274.893C401.951 274.767 402.327 273.763 402.453 273.512C402.579 273.261 403.457 272.508 403.708 272.257C403.909 272.056 403.959 271.252 403.959 270.876C404.169 270.499 404.612 269.645 404.713 269.244C404.838 268.742 404.462 268.365 404.336 268.114C404.211 267.863 403.081 267.863 402.83 267.863C402.629 267.863 401.491 267.277 400.947 266.984C400.779 266.775 400.344 266.306 399.942 266.105C399.541 265.905 399.273 265.938 399.189 265.98C399.064 265.854 398.762 265.578 398.561 265.478C398.31 265.352 397.055 265.101 397.055 264.85C397.055 264.649 395.8 264.18 395.172 263.971C395.088 263.72 394.921 263.143 394.921 262.841C394.921 262.54 394.502 262.297 394.293 262.214C394.042 262.13 393.515 261.912 393.414 261.712C393.289 261.461 393.54 260.582 393.791 259.954C393.992 259.452 394.628 259.41 394.921 259.452C394.963 259.87 395.072 260.732 395.172 260.833C395.298 260.958 395.8 260.707 396.051 260.331C396.252 260.029 396.134 259.201 396.051 258.824C396.427 258.573 397.206 258.021 397.306 257.82C397.432 257.569 397.557 257.192 397.683 256.816C397.808 256.439 398.185 256.816 398.813 256.816C399.44 256.816 398.687 255.937 398.938 255.937C399.189 255.937 399.566 255.937 399.817 255.811C400.068 255.686 400.696 255.309 400.947 255.184C401.198 255.058 400.947 254.933 400.696 254.682C400.444 254.431 401.449 254.18 401.7 254.054C401.951 253.928 402.076 253.552 402.076 253.05C402.076 252.648 401.825 251.962 401.7 251.669H401.198C400.988 251.627 400.495 251.594 400.193 251.794Z" fill="#93C9FE" stroke="#93C9FE" stroke-width="0.327224"/>
<circle cx="406.47" cy="263.846" r="14.7864" stroke="#93C9FE" stroke-width="1.3089"/>
<mask id="path-47-inside-6" fill="white">
<path fill-rule="evenodd" clip-rule="evenodd" d="M268.043 263.117C270.903 259.956 270.903 254.832 268.043 251.671C265.182 248.51 260.544 248.51 257.683 251.671L254.971 254.667L252.26 251.671C249.399 248.51 244.761 248.51 241.9 251.671C239.039 254.832 239.039 259.957 241.9 263.118L244.611 266.114L244.599 266.127L254.959 277.574L254.971 277.561L254.984 277.574L265.344 266.128L265.331 266.114L268.043 263.117Z"/>
</mask>
<path d="M268.043 251.671L269.178 250.643L269.178 250.643L268.043 251.671ZM268.043 263.117L269.178 264.145L269.178 264.145L268.043 263.117ZM257.683 251.671L258.819 252.698L258.819 252.698L257.683 251.671ZM254.971 254.667L253.835 255.695L254.971 256.95L256.107 255.695L254.971 254.667ZM252.26 251.671L253.395 250.643L253.395 250.643L252.26 251.671ZM241.9 251.671L240.764 250.643L240.764 250.643L241.9 251.671ZM241.9 263.118L240.764 264.145L240.764 264.145L241.9 263.118ZM244.611 266.114L245.747 267.141L246.677 266.114L245.747 265.086L244.611 266.114ZM244.599 266.127L243.463 265.1L242.533 266.127L243.463 267.155L244.599 266.127ZM254.959 277.574L253.823 278.602L254.959 279.857L256.095 278.602L254.959 277.574ZM254.971 277.561L256.107 276.533L254.971 275.278L253.835 276.533L254.971 277.561ZM254.984 277.574L253.848 278.602L254.984 279.857L256.12 278.602L254.984 277.574ZM265.344 266.128L266.479 267.155L267.41 266.127L266.479 265.1L265.344 266.128ZM265.331 266.114L264.195 265.086L263.265 266.114L264.195 267.142L265.331 266.114ZM266.907 252.698C269.24 255.276 269.24 259.512 266.907 262.09L269.178 264.145C272.567 260.401 272.567 254.387 269.178 250.643L266.907 252.698ZM258.819 252.698C261.071 250.209 264.654 250.209 266.907 252.698L269.178 250.643C265.71 246.81 260.016 246.81 256.547 250.643L258.819 252.698ZM256.107 255.695L258.819 252.698L256.547 250.643L253.835 253.639L256.107 255.695ZM251.124 252.699L253.835 255.695L256.107 253.639L253.395 250.643L251.124 252.699ZM243.036 252.699C245.288 250.21 248.871 250.21 251.124 252.699L253.395 250.643C249.927 246.81 244.233 246.81 240.764 250.643L243.036 252.699ZM243.036 262.09C240.703 259.512 240.703 255.276 243.036 252.699L240.764 250.643C237.375 254.387 237.375 260.401 240.764 264.145L243.036 262.09ZM245.747 265.086L243.036 262.09L240.764 264.145L243.476 267.142L245.747 265.086ZM245.735 267.155L245.747 267.141L243.476 265.086L243.463 265.1L245.735 267.155ZM256.095 276.546L245.735 265.099L243.463 267.155L253.823 278.602L256.095 276.546ZM253.835 276.533L253.823 276.546L256.095 278.602L256.107 278.588L253.835 276.533ZM256.12 276.547L256.107 276.533L253.835 278.588L253.848 278.602L256.12 276.547ZM264.208 265.1L253.848 276.547L256.12 278.602L266.479 267.155L264.208 265.1ZM264.195 267.142L264.208 267.155L266.479 265.1L266.467 265.086L264.195 267.142ZM266.907 262.09L264.195 265.086L266.467 267.142L269.178 264.145L266.907 262.09Z" fill="#93C9FE" mask="url(#path-47-inside-6)"/>
<path d="M255.866 255.118L246.02 265.86" stroke="#93C9FE" stroke-width="1.53104"/>
<rect x="88.5533" y="247.584" width="18.2017" height="32.5236" rx="1.56498" stroke="#93C9FE" stroke-width="1.04332"/>
<rect x="95.1926" y="249.747" width="4.92315" height="0.895119" rx="0.447559" fill="#93C9FE"/>
<rect x="96.5353" y="275.258" width="2.68536" height="2.68536" rx="1.34268" fill="#93C9FE"/>
<rect x="233.888" y="411.099" width="18.2017" height="32.5236" rx="1.56498" stroke="#93C9FE" stroke-width="1.04332"/>
<rect x="240.527" y="413.262" width="4.92315" height="0.895119" rx="0.447559" fill="#93C9FE"/>
<rect x="241.87" y="438.773" width="2.68536" height="2.68536" rx="1.34268" fill="#93C9FE"/>
<path d="M404.591 441.906C406.205 434.503 404.714 428.782 403.669 424.744" stroke="#93C9FE" stroke-width="1.14303"/>
<path d="M411.57 418.845C408.007 417.99 404.943 421.852 403.857 423.889C404.932 424.843 407.781 426.936 410.575 427.685C413.368 428.433 418.494 426.063 420.708 424.785C419.147 423.161 415.134 419.699 411.57 418.845Z" fill="#93C9FE" stroke="#93C9FE" stroke-width="1.00499"/>
<path d="M399.03 417.105C402.824 420.1 403.108 422.406 403.611 424.919C401.713 424.052 396.576 425.322 393.518 422.979C390.459 420.635 388.9 416.137 388.503 414.182C391.518 415.427 395.236 414.11 399.03 417.105Z" fill="#93C9FE" stroke="#93C9FE" stroke-width="1.00499"/>
<mask id="path-59-inside-7" fill="white">
<path fill-rule="evenodd" clip-rule="evenodd" d="M109.775 429.406L89.5552 414.499L92.3548 439.463L98.2141 432.896L102.344 440.049L105.748 438.084L101.706 431.083L109.775 429.406Z"/>
</mask>
<path fill-rule="evenodd" clip-rule="evenodd" d="M109.775 429.406L89.5552 414.499L92.3548 439.463L98.2141 432.896L102.344 440.049L105.748 438.084L101.706 431.083L109.775 429.406Z" fill="#93C9FE"/>
<path d="M89.5552 414.499L90.1743 413.66L88.2522 412.243L88.5184 414.616L89.5552 414.499ZM109.775 429.406L109.987 430.427L112.274 429.952L110.394 428.566L109.775 429.406ZM92.3548 439.463L91.318 439.579L91.5783 441.9L93.1333 440.158L92.3548 439.463ZM98.2141 432.896L99.1177 432.375L98.3963 431.125L97.4356 432.202L98.2141 432.896ZM102.344 440.049L101.44 440.571L101.962 441.474L102.865 440.952L102.344 440.049ZM105.748 438.084L106.269 438.987L107.173 438.466L106.651 437.562L105.748 438.084ZM101.706 431.083L101.493 430.061L100.081 430.355L100.802 431.605L101.706 431.083ZM88.9361 415.339L109.155 430.246L110.394 428.566L90.1743 413.66L88.9361 415.339ZM93.3916 439.347L90.592 414.383L88.5184 414.616L91.318 439.579L93.3916 439.347ZM97.4356 432.202L91.5763 438.768L93.1333 440.158L98.9926 433.591L97.4356 432.202ZM103.247 439.527L99.1177 432.375L97.3106 433.418L101.44 440.571L103.247 439.527ZM105.226 437.18L101.822 439.145L102.865 440.952L106.269 438.987L105.226 437.18ZM100.802 431.605L104.844 438.605L106.651 437.562L102.609 430.561L100.802 431.605ZM109.562 428.384L101.493 430.061L101.918 432.104L109.987 430.427L109.562 428.384Z" fill="#93C9FE" mask="url(#path-59-inside-7)"/>
<mask id="path-61-inside-8" fill="white">
<path fill-rule="evenodd" clip-rule="evenodd" d="M330.599 511.163L310.379 496.257L313.179 521.22L319.038 514.654L323.168 521.807L326.572 519.841L322.53 512.84L330.599 511.163Z"/>
</mask>
<path fill-rule="evenodd" clip-rule="evenodd" d="M330.599 511.163L310.379 496.257L313.179 521.22L319.038 514.654L323.168 521.807L326.572 519.841L322.53 512.84L330.599 511.163Z" fill="#93C9FE"/>
<path d="M310.379 496.257L310.999 495.417L309.076 494L309.343 496.373L310.379 496.257ZM330.599 511.163L330.811 512.185L333.098 511.709L331.218 510.323L330.599 511.163ZM313.179 521.22L312.142 521.337L312.402 523.658L313.957 521.915L313.179 521.22ZM319.038 514.654L319.942 514.132L319.22 512.883L318.26 513.959L319.038 514.654ZM323.168 521.807L322.264 522.328L322.786 523.232L323.69 522.71L323.168 521.807ZM326.572 519.841L327.093 520.745L327.997 520.223L327.475 519.32L326.572 519.841ZM322.53 512.84L322.317 511.819L320.905 512.112L321.626 513.362L322.53 512.84ZM309.76 497.097L329.98 512.003L331.218 510.323L310.999 495.417L309.76 497.097ZM314.216 521.104L311.416 496.14L309.343 496.373L312.142 521.337L314.216 521.104ZM318.26 513.959L312.401 520.526L313.957 521.915L319.817 515.348L318.26 513.959ZM324.071 521.285L319.942 514.132L318.135 515.175L322.264 522.328L324.071 521.285ZM326.05 518.938L322.646 520.903L323.69 522.71L327.093 520.745L326.05 518.938ZM321.626 513.362L325.668 520.363L327.475 519.32L323.433 512.319L321.626 513.362ZM330.386 510.142L322.317 511.819L322.742 513.862L330.811 512.185L330.386 510.142Z" fill="#93C9FE" mask="url(#path-61-inside-8)"/>
<circle cx="12.4148" cy="498.174" r="2.00156" transform="rotate(27.0062 12.4148 498.174)" fill="#93C9FE"/>
<circle cx="7.7847" cy="509.294" r="2.00156" transform="rotate(27.0062 7.7847 509.294)" fill="#93C9FE"/>
<circle cx="21.9643" cy="509.954" r="2.00156" transform="rotate(27.0062 21.9643 509.954)" fill="#93C9FE"/>
<circle cx="23.5774" cy="524.565" r="2.00156" transform="rotate(27.0062 23.5774 524.565)" fill="#93C9FE"/>
<circle cx="33.8623" cy="502.884" r="2.00156" transform="rotate(27.0062 33.8623 502.884)" fill="#93C9FE"/>
<path d="M33.9295 503.091L12.4122 498.519L7.78196 509.638L23.5706 524.782M33.9295 503.091L23.5706 524.782M33.9295 503.091L22.2386 510.094L23.5706 524.782" stroke="#93C9FE" stroke-width="0.881202"/>
<path d="M7.78205 509.638L22.306 510.301L12.5521 498.244" stroke="#93C9FE" stroke-width="0.881202"/>
<path d="M165.366 520.155H173.465V523.25C173.465 524.387 172.543 525.309 171.406 525.309H167.426C166.288 525.309 165.366 524.387 165.366 523.25V520.155Z" fill="#93C9FE"/>
<path d="M167.575 524.573H171.256V524.573C171.256 525.386 170.597 526.046 169.784 526.046H169.047C168.234 526.046 167.575 525.386 167.575 524.573V524.573Z" fill="#93C9FE"/>
<mask id="path-72-inside-9" fill="white">
<path fill-rule="evenodd" clip-rule="evenodd" d="M178.418 509.868C179.928 507.933 180.828 505.497 180.828 502.852C180.828 496.549 175.719 491.439 169.416 491.439C163.113 491.439 158.003 496.549 158.003 502.852C158.003 505.497 158.903 507.932 160.413 509.868L165.366 519.419H173.465L178.418 509.868Z"/>
</mask>
<path d="M178.418 509.868L177.335 509.023L177.257 509.123L177.199 509.236L178.418 509.868ZM160.413 509.868L161.632 509.236L161.574 509.123L161.496 509.023L160.413 509.868ZM165.366 519.419L164.147 520.051L164.531 520.792H165.366V519.419ZM173.465 519.419V520.792H174.3L174.684 520.051L173.465 519.419ZM179.455 502.852C179.455 505.181 178.664 507.321 177.335 509.023L179.5 510.713C181.193 508.545 182.202 505.814 182.202 502.852H179.455ZM169.416 492.812C174.96 492.812 179.455 497.307 179.455 502.852H182.202C182.202 495.791 176.477 490.066 169.416 490.066V492.812ZM159.376 502.852C159.376 497.307 163.871 492.812 169.416 492.812V490.066C162.354 490.066 156.63 495.791 156.63 502.852H159.376ZM161.496 509.023C160.167 507.32 159.376 505.18 159.376 502.852H156.63C156.63 505.814 157.639 508.544 159.331 510.713L161.496 509.023ZM166.585 518.787L161.632 509.236L159.194 510.5L164.147 520.051L166.585 518.787ZM173.465 518.046H165.366V520.792H173.465V518.046ZM177.199 509.236L172.246 518.787L174.684 520.051L179.637 510.5L177.199 509.236Z" fill="#93C9FE" mask="url(#path-72-inside-9)"/>
<path d="M168.145 516.429C167.654 512.257 165.2 505.385 164.832 503.912C164.51 502.624 164.322 500.599 166.304 500.599C167.777 500.599 169.423 504.649 167.777 504.649C165.936 504.649 168.521 500.275 169.994 500.275C171.466 500.275 171.827 502.071 171.827 502.071C171.827 502.071 172.931 504.649 171.458 504.649C169.986 504.649 173.152 499.863 174.035 501.335C174.919 502.808 171.581 511.398 170.722 516.429" stroke="#93C9FE" stroke-width="0.686573"/>
<mask id="path-75-inside-10" fill="white">
<path fill-rule="evenodd" clip-rule="evenodd" d="M475.828 497.258C472.789 497.258 470.199 499.181 469.208 501.877H467.927C463.913 501.877 460.557 504.697 459.733 508.464C456.627 508.735 454.191 511.342 454.191 514.519C454.191 517.875 456.912 520.597 460.269 520.597H487.498C490.855 520.597 493.576 517.875 493.576 514.519C493.576 511.576 491.485 509.122 488.708 508.561C488.712 508.481 488.713 508.401 488.713 508.32C488.713 505.433 486.373 503.093 483.486 503.093C483.326 503.093 483.168 503.1 483.011 503.114C482.925 503.061 482.838 503.01 482.75 502.96C482.121 499.711 479.261 497.258 475.828 497.258Z"/>
</mask>
<path d="M469.208 501.877V503.129H470.082L470.383 502.308L469.208 501.877ZM459.733 508.464L459.842 509.711L460.759 509.631L460.956 508.731L459.733 508.464ZM488.708 508.561L487.457 508.504L487.409 509.576L488.46 509.788L488.708 508.561ZM483.011 503.114L482.355 504.18L482.709 504.398L483.123 504.361L483.011 503.114ZM482.75 502.96L481.521 503.198L481.631 503.765L482.133 504.049L482.75 502.96ZM470.383 502.308C471.199 500.089 473.331 498.51 475.828 498.51V496.006C472.247 496.006 469.199 498.272 468.033 501.445L470.383 502.308ZM467.927 503.129H469.208V500.625H467.927V503.129ZM460.956 508.731C461.657 505.527 464.513 503.129 467.927 503.129V500.625C463.312 500.625 459.457 503.867 458.51 508.196L460.956 508.731ZM455.443 514.519C455.443 511.997 457.377 509.926 459.842 509.711L459.624 507.217C455.877 507.544 452.939 510.687 452.939 514.519H455.443ZM460.269 519.345C457.603 519.345 455.443 517.184 455.443 514.519H452.939C452.939 518.567 456.22 521.849 460.269 521.849V519.345ZM487.498 519.345H460.269V521.849H487.498V519.345ZM492.324 514.519C492.324 517.184 490.163 519.345 487.498 519.345V521.849C491.546 521.849 494.828 518.567 494.828 514.519H492.324ZM488.46 509.788C490.665 510.234 492.324 512.184 492.324 514.519H494.828C494.828 510.969 492.306 508.011 488.956 507.334L488.46 509.788ZM487.462 508.32C487.462 508.382 487.46 508.443 487.457 508.504L489.959 508.618C489.963 508.519 489.965 508.42 489.965 508.32H487.462ZM483.486 504.345C485.682 504.345 487.462 506.124 487.462 508.32H489.965C489.965 504.741 487.065 501.841 483.486 501.841V504.345ZM483.123 504.361C483.243 504.35 483.364 504.345 483.486 504.345V501.841C483.289 501.841 483.092 501.85 482.899 501.867L483.123 504.361ZM482.133 504.049C482.208 504.092 482.282 504.135 482.355 504.18L483.667 502.047C483.568 501.987 483.468 501.928 483.367 501.87L482.133 504.049ZM475.828 498.51C478.65 498.51 481.003 500.526 481.521 503.198L483.979 502.722C483.238 498.895 479.872 496.006 475.828 496.006V498.51Z" fill="#93C9FE" mask="url(#path-75-inside-10)"/>
<path d="M171.863 333.552C172.465 333.552 173.537 333.217 173.997 333.05H174.876L178.265 336.439L180.022 339.326L181.529 343.218L181.027 344.473C180.692 345.31 180.022 347.16 180.022 347.863C180.022 348.741 180.148 349.62 180.022 349.871C179.922 350.072 179.06 350.624 178.642 350.876V351.629C178.474 351.838 177.989 352.432 177.386 353.135C176.633 354.014 175.378 354.516 175.127 354.265C174.876 354.014 174.876 352.507 174.876 351.629V348.49C174.876 348.114 174.499 347.235 174.499 346.984C174.499 346.783 174.332 346.063 174.248 345.729C174.164 345.645 173.821 345.427 173.118 345.226C172.239 344.975 171.361 345.478 170.858 345.603C170.356 345.729 170.356 345.226 169.603 345.226C168.85 345.226 168.097 343.72 167.971 343.594C167.846 343.469 167.72 342.59 167.72 342.214C167.72 341.837 167.469 341.209 167.469 340.958C167.469 340.707 167.971 340.08 168.348 339.703C168.649 339.402 169.059 339.159 169.226 339.075V338.196C169.226 337.82 168.975 337.694 168.599 337.443C168.222 337.192 168.975 336.439 168.975 335.937C168.975 335.535 169.31 335.518 169.478 335.56C169.352 335.518 169.076 335.334 168.975 334.933C168.875 334.531 169.352 334.598 169.603 334.682L170.356 333.552H171.863Z" fill="#93C9FE" stroke="#93C9FE" stroke-width="0.327224"/>
<path d="M160.439 333.552C160.138 333.753 159.351 332.965 159.184 332.672C158.012 333.509 155.87 335.586 155.167 336.188C154.288 336.941 153.409 339.201 152.907 339.703C152.505 340.105 152.237 342.716 152.154 343.971L152.656 344.599C152.823 344.599 153.158 344.624 153.158 344.725C153.158 344.825 153.325 345.101 153.409 345.227L154.037 345.603C154.037 345.771 154.062 346.156 154.162 346.357C154.263 346.557 154.706 346.691 154.916 346.733V347.612C154.916 347.988 155.041 348.616 155.041 348.742C155.041 348.867 154.539 349.244 154.665 349.495C154.79 349.746 154.539 350.499 154.539 350.625C154.539 350.75 156.045 352.884 156.296 353.01C156.548 353.135 157.301 353.386 157.552 353.512C157.803 353.638 159.184 357.153 159.56 357.655C159.937 358.157 161.569 359.287 162.197 359.287C162.824 359.287 162.699 359.036 162.699 358.784C162.699 358.533 161.82 357.655 161.946 357.655C162.046 357.655 162.49 357.487 162.699 357.404C162.615 357.194 162.423 356.751 162.322 356.65C162.197 356.525 162.573 355.521 162.699 355.269C162.824 355.018 163.703 354.265 163.954 354.014C164.155 353.813 164.205 353.01 164.205 352.633C164.414 352.257 164.858 351.403 164.958 351.001C165.084 350.499 164.707 350.123 164.582 349.871C164.456 349.62 163.326 349.62 163.075 349.62C162.874 349.62 161.736 349.035 161.192 348.742C161.025 348.532 160.59 348.064 160.188 347.863C159.786 347.662 159.519 347.696 159.435 347.737C159.309 347.612 159.008 347.336 158.807 347.235C158.556 347.11 157.301 346.859 157.301 346.608C157.301 346.407 156.045 345.938 155.418 345.729C155.334 345.478 155.167 344.9 155.167 344.599C155.167 344.298 154.748 344.055 154.539 343.971C154.288 343.888 153.761 343.67 153.66 343.469C153.535 343.218 153.786 342.339 154.037 341.712C154.238 341.21 154.874 341.168 155.167 341.21C155.208 341.628 155.317 342.49 155.418 342.59C155.543 342.716 156.045 342.465 156.296 342.088C156.497 341.787 156.38 340.959 156.296 340.582C156.673 340.331 157.451 339.778 157.552 339.578C157.677 339.327 157.803 338.95 157.928 338.573C158.054 338.197 158.431 338.573 159.058 338.573C159.686 338.573 158.933 337.695 159.184 337.695C159.435 337.695 159.811 337.695 160.063 337.569C160.314 337.444 160.941 337.067 161.192 336.941C161.443 336.816 161.192 336.69 160.941 336.439C160.69 336.188 161.694 335.937 161.946 335.812C162.197 335.686 162.322 335.309 162.322 334.807C162.322 334.406 162.071 333.719 161.946 333.426H161.443C161.234 333.385 160.74 333.351 160.439 333.552Z" fill="#93C9FE" stroke="#93C9FE" stroke-width="0.327224"/>
<circle cx="166.716" cy="345.603" r="14.7864" stroke="#93C9FE" stroke-width="1.3089"/>
<mask id="path-80-inside-11" fill="white">
<path fill-rule="evenodd" clip-rule="evenodd" d="M28.2884 344.875C31.1492 341.714 31.1492 336.589 28.2884 333.428C25.4276 330.267 20.7894 330.267 17.9286 333.428L15.2169 336.424L12.5054 333.428C9.64463 330.267 5.00638 330.267 2.14559 333.428C-0.715197 336.589 -0.715197 341.714 2.14559 344.875L4.85709 347.871L4.84467 347.885L15.2045 359.332L15.2169 359.318L15.2295 359.332L25.5893 347.885L25.5768 347.871L28.2884 344.875Z"/>
</mask>
<path d="M28.2884 333.428L29.4241 332.4L29.4241 332.4L28.2884 333.428ZM28.2884 344.875L29.4241 345.903L29.4241 345.903L28.2884 344.875ZM17.9286 333.428L16.7928 332.4L17.9286 333.428ZM15.2169 336.424L14.0812 337.452L15.2169 338.707L16.3527 337.452L15.2169 336.424ZM12.5054 333.428L11.3697 334.456L11.3697 334.456L12.5054 333.428ZM2.14559 333.428L1.00985 332.4L1.00985 332.4L2.14559 333.428ZM2.14559 344.875L3.28133 343.847L3.28133 343.847L2.14559 344.875ZM4.85709 347.871L5.99282 348.899L6.92312 347.871L5.99284 346.843L4.85709 347.871ZM4.84467 347.885L3.70894 346.857L2.77864 347.885L3.70893 348.913L4.84467 347.885ZM15.2045 359.332L14.0688 360.359L15.2045 361.614L16.3403 360.359L15.2045 359.332ZM15.2169 359.318L16.3527 358.29L15.2169 357.035L14.0811 358.29L15.2169 359.318ZM15.2295 359.332L14.0937 360.36L15.2295 361.615L16.3652 360.36L15.2295 359.332ZM25.5893 347.885L26.7251 348.913L27.6553 347.885L26.725 346.857L25.5893 347.885ZM25.5768 347.871L24.441 346.843L23.5107 347.871L24.441 348.899L25.5768 347.871ZM27.1527 334.456C29.4853 337.033 29.4853 341.269 27.1527 343.847L29.4241 345.903C32.813 342.158 32.813 336.144 29.4241 332.4L27.1527 334.456ZM19.0643 334.456C21.317 331.967 24.9 331.967 27.1527 334.456L29.4241 332.4C25.9553 328.567 20.2617 328.567 16.7928 332.4L19.0643 334.456ZM16.3527 337.452L19.0643 334.456L16.7928 332.4L14.0812 335.396L16.3527 337.452ZM11.3697 334.456L14.0812 337.452L16.3527 335.396L13.6412 332.4L11.3697 334.456ZM3.28133 334.456C5.53402 331.967 9.11699 331.967 11.3697 334.456L13.6412 332.4C10.1723 328.567 4.47873 328.567 1.00985 332.4L3.28133 334.456ZM3.28133 343.847C0.948643 341.27 0.948643 337.033 3.28133 334.456L1.00985 332.4C-2.37904 336.145 -2.37904 342.158 1.00985 345.903L3.28133 343.847ZM5.99284 346.843L3.28133 343.847L1.00985 345.903L3.72135 348.899L5.99284 346.843ZM5.98039 348.913L5.99282 348.899L3.72137 346.843L3.70894 346.857L5.98039 348.913ZM16.3402 358.304L5.98041 346.857L3.70893 348.913L14.0688 360.359L16.3402 358.304ZM14.0811 358.29L14.0687 358.304L16.3403 360.359L16.3527 360.346L14.0811 358.29ZM16.3652 358.304L16.3527 358.29L14.0812 360.346L14.0937 360.36L16.3652 358.304ZM24.4536 346.857L14.0937 358.304L16.3652 360.36L26.7251 348.913L24.4536 346.857ZM24.441 348.899L24.4536 348.913L26.725 346.857L26.7125 346.843L24.441 348.899ZM27.1527 343.847L24.441 346.843L26.7125 348.899L29.4241 345.903L27.1527 343.847Z" fill="#93C9FE" mask="url(#path-80-inside-11)"/>
<path d="M16.1122 336.876L6.26587 347.617" stroke="#93C9FE" stroke-width="1.53104"/>
<rect x="302.998" y="331.057" width="5.37071" height="5.37071" fill="#93C9FE"/>
<rect x="326.271" y="331.057" width="5.37071" height="5.37071" fill="#93C9FE"/>
<rect x="326.271" y="354.778" width="5.37071" height="5.37071" fill="#93C9FE"/>
<rect x="302.998" y="354.778" width="5.37071" height="5.37071" fill="#93C9FE"/>
<rect x="306.518" y="334.577" width="22.0513" height="22.0513" stroke="#93C9FE" stroke-width="1.66932"/>
<path d="M313.417 341.349H316.148V350.19H317.822V341.349H320.539V339.984H313.417V341.349Z" fill="#93C9FE"/>
<circle cx="463.55" cy="334.66" r="2.00156" transform="rotate(27.0062 463.55 334.66)" fill="#93C9FE"/>
<circle cx="458.92" cy="345.779" r="2.00156" transform="rotate(27.0062 458.92 345.779)" fill="#93C9FE"/>
<circle cx="473.099" cy="346.439" r="2.00156" transform="rotate(27.0062 473.099 346.439)" fill="#93C9FE"/>
<circle cx="474.713" cy="361.051" r="2.00156" transform="rotate(27.0062 474.713 361.051)" fill="#93C9FE"/>
<circle cx="484.997" cy="339.37" r="2.00156" transform="rotate(27.0062 484.997 339.37)" fill="#93C9FE"/>
<path d="M485.065 339.577L463.547 335.004L458.917 346.124L474.706 361.268M485.065 339.577L474.706 361.268M485.065 339.577L473.374 346.579L474.706 361.268" stroke="#93C9FE" stroke-width="0.881202"/>
<path d="M458.917 346.124L473.441 346.786L463.687 334.73" stroke="#93C9FE" stroke-width="0.881202"/>
<path d="M411.307 576.809C411.91 576.809 412.981 576.474 413.441 576.307H414.32L417.709 579.696L419.467 582.584L420.973 586.475L420.471 587.731C420.136 588.567 419.467 590.417 419.467 591.12C419.467 591.999 419.592 592.878 419.467 593.129C419.366 593.329 418.504 593.882 418.086 594.133V594.886C417.919 595.095 417.433 595.689 416.831 596.392C416.077 597.271 414.822 597.773 414.571 597.522C414.32 597.271 414.32 595.765 414.32 594.886V591.748C414.32 591.371 413.943 590.492 413.943 590.241C413.943 590.04 413.776 589.321 413.692 588.986C413.609 588.902 413.265 588.685 412.562 588.484C411.684 588.233 410.805 588.735 410.303 588.86C409.801 588.986 409.801 588.484 409.047 588.484C408.294 588.484 407.541 586.977 407.415 586.852C407.29 586.726 407.164 585.848 407.164 585.471C407.164 585.094 406.913 584.467 406.913 584.216C406.913 583.965 407.415 583.337 407.792 582.96C408.093 582.659 408.503 582.416 408.671 582.333V581.454C408.671 581.077 408.42 580.952 408.043 580.701C407.667 580.45 408.42 579.696 408.42 579.194C408.42 578.792 408.755 578.776 408.922 578.818C408.796 578.776 408.52 578.592 408.42 578.19C408.319 577.788 408.796 577.855 409.047 577.939L409.801 576.809H411.307Z" fill="#93C9FE" stroke="#93C9FE" stroke-width="0.327224"/>
<path d="M399.883 576.809C399.582 577.01 398.795 576.222 398.628 575.929C397.456 576.766 395.314 578.843 394.611 579.446C393.732 580.199 392.853 582.458 392.351 582.96C391.95 583.362 391.682 585.973 391.598 587.229L392.1 587.856C392.268 587.856 392.602 587.881 392.602 587.982C392.602 588.082 392.77 588.358 392.853 588.484L393.481 588.861C393.481 589.028 393.506 589.413 393.607 589.614C393.707 589.815 394.151 589.949 394.36 589.99V590.869C394.36 591.246 394.485 591.873 394.485 591.999C394.485 592.125 393.983 592.501 394.109 592.752C394.234 593.003 393.983 593.756 393.983 593.882C393.983 594.008 395.49 596.142 395.741 596.267C395.992 596.393 396.745 596.644 396.996 596.769C397.247 596.895 398.628 600.41 399.005 600.912C399.381 601.414 401.013 602.544 401.641 602.544C402.269 602.544 402.143 602.293 402.143 602.042C402.143 601.791 401.264 600.912 401.39 600.912C401.49 600.912 401.934 600.745 402.143 600.661C402.059 600.452 401.867 600.008 401.766 599.908C401.641 599.782 402.018 598.778 402.143 598.527C402.269 598.276 403.147 597.523 403.398 597.271C403.599 597.071 403.649 596.267 403.649 595.891C403.859 595.514 404.302 594.66 404.403 594.259C404.528 593.756 404.152 593.38 404.026 593.129C403.901 592.878 402.771 592.878 402.52 592.878C402.319 592.878 401.181 592.292 400.637 591.999C400.469 591.79 400.034 591.321 399.632 591.12C399.231 590.919 398.963 590.953 398.879 590.995C398.754 590.869 398.452 590.593 398.251 590.493C398 590.367 396.745 590.116 396.745 589.865C396.745 589.664 395.49 589.195 394.862 588.986C394.778 588.735 394.611 588.158 394.611 587.856C394.611 587.555 394.193 587.312 393.983 587.229C393.732 587.145 393.205 586.927 393.105 586.727C392.979 586.475 393.23 585.597 393.481 584.969C393.682 584.467 394.318 584.425 394.611 584.467C394.653 584.885 394.762 585.747 394.862 585.848C394.988 585.973 395.49 585.722 395.741 585.346C395.942 585.044 395.824 584.216 395.741 583.839C396.117 583.588 396.896 583.036 396.996 582.835C397.122 582.584 397.247 582.207 397.373 581.831C397.498 581.454 397.875 581.831 398.503 581.831C399.13 581.831 398.377 580.952 398.628 580.952C398.879 580.952 399.256 580.952 399.507 580.826C399.758 580.701 400.386 580.324 400.637 580.199C400.888 580.073 400.637 579.948 400.386 579.697C400.135 579.446 401.139 579.194 401.39 579.069C401.641 578.943 401.766 578.567 401.766 578.065C401.766 577.663 401.515 576.977 401.39 576.684H400.888C400.679 576.642 400.185 576.608 399.883 576.809Z" fill="#93C9FE" stroke="#93C9FE" stroke-width="0.327224"/>
<circle cx="406.16" cy="588.86" r="14.7864" stroke="#93C9FE" stroke-width="1.3089"/>
<mask id="path-99-inside-12" fill="white">
<path fill-rule="evenodd" clip-rule="evenodd" d="M267.733 588.132C270.594 584.971 270.594 579.846 267.733 576.685C264.872 573.524 260.234 573.524 257.373 576.685L254.661 579.682L251.95 576.686C249.089 573.525 244.451 573.525 241.59 576.686C238.729 579.847 238.729 584.972 241.59 588.132L244.301 591.129L244.289 591.142L254.649 602.589L254.661 602.575L254.674 602.589L265.034 591.142L265.021 591.129L267.733 588.132Z"/>
</mask>
<path d="M267.733 576.685L268.869 575.658L268.869 575.658L267.733 576.685ZM267.733 588.132L266.597 587.104L266.597 587.104L267.733 588.132ZM257.373 576.685L258.509 577.713L258.509 577.713L257.373 576.685ZM254.661 579.682L253.526 580.71L254.661 581.964L255.797 580.71L254.661 579.682ZM251.95 576.686L253.086 575.658L253.086 575.658L251.95 576.686ZM241.59 576.686L240.454 575.658L241.59 576.686ZM241.59 588.132L240.454 589.16L240.454 589.16L241.59 588.132ZM244.301 591.129L245.437 592.156L246.367 591.129L245.437 590.101L244.301 591.129ZM244.289 591.142L243.153 590.114L242.223 591.142L243.153 592.17L244.289 591.142ZM254.649 602.589L253.513 603.617L254.649 604.872L255.785 603.617L254.649 602.589ZM254.661 602.575L255.797 601.548L254.661 600.293L253.526 601.548L254.661 602.575ZM254.674 602.589L253.538 603.617L254.674 604.872L255.81 603.617L254.674 602.589ZM265.034 591.142L266.169 592.17L267.1 591.142L266.169 590.115L265.034 591.142ZM265.021 591.129L263.885 590.101L262.955 591.129L263.885 592.156L265.021 591.129ZM266.597 577.713C268.93 580.291 268.93 584.527 266.597 587.104L268.869 589.16C272.257 585.416 272.257 579.402 268.869 575.658L266.597 577.713ZM258.509 577.713C260.761 575.224 264.344 575.224 266.597 577.713L268.869 575.658C265.4 571.825 259.706 571.825 256.237 575.658L258.509 577.713ZM255.797 580.71L258.509 577.713L256.237 575.658L253.526 578.654L255.797 580.71ZM250.814 577.713L253.526 580.71L255.797 578.654L253.086 575.658L250.814 577.713ZM242.726 577.713C244.978 575.224 248.561 575.224 250.814 577.713L253.086 575.658C249.617 571.825 243.923 571.825 240.454 575.658L242.726 577.713ZM242.726 587.105C240.393 584.527 240.393 580.291 242.726 577.713L240.454 575.658C237.065 579.402 237.065 585.416 240.454 589.16L242.726 587.105ZM245.437 590.101L242.726 587.105L240.454 589.16L243.166 592.156L245.437 590.101ZM245.425 592.17L245.437 592.156L243.166 590.101L243.153 590.114L245.425 592.17ZM255.785 601.561L245.425 590.114L243.153 592.17L253.513 603.617L255.785 601.561ZM253.526 601.548L253.513 601.561L255.785 603.617L255.797 603.603L253.526 601.548ZM255.81 601.561L255.797 601.548L253.526 603.603L253.538 603.617L255.81 601.561ZM263.898 590.115L253.538 601.561L255.81 603.617L266.169 592.17L263.898 590.115ZM263.885 592.156L263.898 592.17L266.169 590.115L266.157 590.101L263.885 592.156ZM266.597 587.104L263.885 590.101L266.157 592.156L268.869 589.16L266.597 587.104Z" fill="#93C9FE" mask="url(#path-99-inside-12)"/>
<path d="M255.557 580.133L245.71 590.874" stroke="#93C9FE" stroke-width="1.53104"/>
<rect x="88.2433" y="572.599" width="18.2017" height="32.5236" rx="1.56498" stroke="#93C9FE" stroke-width="1.04332"/>
<rect x="94.8827" y="574.762" width="4.92315" height="0.895119" rx="0.447559" fill="#93C9FE"/>
<rect x="96.2253" y="600.273" width="2.68536" height="2.68536" rx="1.34268" fill="#93C9FE"/>
</svg>
