<svg width="349" height="302" viewBox="0 0 349 302" fill="none" xmlns="http://www.w3.org/2000/svg">
<path d="M80.3725 204.733C81.4265 200.205 85.4626 197 90.1121 197H97.5113C101.793 197 105.6 199.726 106.979 203.78L116.503 231.78C118.709 238.266 113.887 245 107.036 245H83.5949C77.1563 245 72.3956 239.004 73.8552 232.733L80.3725 204.733Z" fill="#93C9FE"/>
<path d="M157.095 237H290.141C298.355 237 303.066 246.355 298.175 252.954L264.823 297.954C262.937 300.499 259.956 302 256.789 302H157.095H61.1086C58.2152 302 55.4637 300.747 53.5644 298.564L14.4116 253.564C8.78087 247.092 13.3775 237 21.9558 237H157.095Z" fill="#0078E8"/>
<rect x="169.333" y="51" width="10" height="199" rx="5" fill="#0078E8"/>
<path d="M178.685 62.2257C178.677 54.4405 187.175 49.6322 193.844 53.6489L300.417 117.837C306.974 121.786 306.844 131.338 300.182 135.107L193.74 195.329C187.078 199.098 178.824 194.29 178.816 186.636L178.685 62.2257Z" fill="white"/>
<rect x="40" y="257" width="115" height="8" rx="4" fill="#93C9FE"/>
<rect x="195" y="270" width="58" height="8" rx="4" fill="#93C9FE"/>
<rect x="85" y="279" width="70" height="8" rx="4" fill="#93C9FE"/>
<ellipse cx="92" cy="178" rx="28" ry="25" fill="#93C9FE"/>
<path d="M0 167.971C0 161.414 6.20326 156.632 12.5439 158.3L56.3464 169.821C60.2671 170.853 63 174.397 63 178.451V178.451C63 183.38 59.0047 187.375 54.0764 187.375H10C4.47715 187.375 0 182.898 0 177.375V167.971Z" fill="#0078E8"/>
<path d="M89.7806 212.698C72.4528 218.107 71.2705 218.347 53.2597 209.756C35.249 201.166 33.6111 180.276 41.8061 178.555C50.0012 176.833 42.3529 197.315 60.3637 205.906C78.3745 214.497 95.1315 201.48 89.7806 212.698Z" fill="#93C9FE"/>
</svg>
