<svg width="206" height="180" viewBox="0 0 206 180" fill="none" xmlns="http://www.w3.org/2000/svg">
<path d="M146.785 47.3983C167.46 59.3253 197.642 61.439 204.433 73.064C211.224 84.8401 194.624 106.429 179.985 121.376C165.196 136.172 152.217 144.475 139.843 154.741C127.468 165.159 115.546 177.388 101.964 179.652C88.5328 181.766 73.4417 173.915 56.8414 165.008C40.3921 156.1 22.4336 145.985 11.7189 129.68C1.0042 113.374 -2.61767 90.7281 1.90967 68.6858C6.2861 46.6435 18.6608 25.205 36.9211 12.5231C55.1814 -0.158745 79.4782 -4.08409 97.1348 4.82343C114.791 13.7309 126.11 35.6223 146.785 47.3983Z" fill="#EFEFEF"/>
</svg>
