<svg width="214" height="200" viewBox="0 0 214 200" fill="none" xmlns="http://www.w3.org/2000/svg">
<path d="M154.785 47.3983C175.46 59.3253 205.642 61.439 212.433 73.064C219.224 84.8401 202.624 106.429 187.985 121.376C173.196 136.172 160.217 144.475 147.843 154.741C135.468 165.159 123.546 177.388 109.964 179.652C96.5328 181.766 81.4417 173.915 64.8414 165.008C48.3921 156.1 30.4336 145.985 19.7189 129.68C9.0042 113.374 5.38233 90.7281 9.90967 68.6858C14.2861 46.6435 26.6608 25.205 44.9211 12.5231C63.1814 -0.158745 87.4782 -4.08409 105.135 4.82343C122.791 13.7309 134.11 35.6223 154.785 47.3983Z" fill="#EFEFEF"/>
<path d="M152.406 124.146C148.681 131.027 139.806 138.22 135.835 140.956L131.049 140.059C134.193 136.182 144.237 123.556 142.062 122C139.343 120.055 133.479 129.59 128.053 133.527C122.627 137.463 113.272 144.701 107.531 150.607C101.791 156.513 103.811 169.598 104.547 176.655C105.57 186.45 104.807 175.141 105.997 186.539L129.849 184.049C129.127 177.127 124.469 170.05 128.991 166.969C131.96 164.946 136.301 155.418 142.062 152.545C147.823 149.671 152.587 138.815 156.693 133.66C160.798 128.505 166.113 114.202 168.17 109.227C170.227 104.252 168.936 101.271 166.031 102.073C163.126 102.875 157.062 115.544 152.406 124.146Z" fill="#93C9FE" stroke="#93C9FE" stroke-width="3"/>
<path d="M44.4658 124.146C48.1908 131.027 57.0654 138.22 61.0371 140.956L65.8229 140.059C62.6788 136.182 52.6343 123.556 54.8094 122C57.5283 120.055 63.393 129.59 68.8187 133.527C74.2445 137.463 83.6001 144.701 89.3404 150.607C95.0808 156.513 93.061 169.598 92.3244 176.655C91.3018 186.45 92.0648 175.141 90.8749 186.539L67.0225 184.049C67.7451 177.127 72.4024 170.05 67.881 166.969C64.9115 164.946 60.5703 155.418 54.8094 152.545C49.0485 149.671 44.2846 138.815 40.179 133.66C36.0733 128.505 30.7588 114.202 28.7017 109.227C26.6446 104.252 27.9356 101.271 30.8408 102.073C33.7461 102.875 39.8096 115.544 44.4658 124.146Z" fill="#93C9FE" stroke="#93C9FE" stroke-width="3"/>
<path d="M95.4749 133.563C99.9319 113.122 95.8141 97.3266 92.9278 86.1768" stroke="#8FD832" stroke-width="3.38476"/>
<path d="M114.746 69.8862C104.907 67.5262 96.4476 78.1889 93.4479 83.8152C96.4169 86.4476 104.283 92.229 111.997 94.2951C119.71 96.3613 133.864 89.8186 139.976 86.289C135.666 81.8047 124.586 72.2462 114.746 69.8862Z" stroke="#8FD832" stroke-width="2.976"/>
<path d="M80.121 65.0821C90.5965 73.3512 91.3814 79.7207 92.7691 86.6581C87.5281 84.2643 73.3461 87.7722 64.8999 81.3011C56.4537 74.83 52.1494 62.411 51.0531 57.0104C59.3793 60.4505 69.6455 56.813 80.121 65.0821Z" stroke="#8FD832" stroke-width="2.976"/>
<path d="M95.4749 133.563C99.9319 113.122 95.8141 97.3266 92.9278 86.1768" stroke="#8FD832" stroke-width="3.38476"/>
<path d="M114.746 69.8862C104.907 67.5262 96.4476 78.1889 93.4479 83.8152C96.4169 86.4476 104.283 92.229 111.997 94.2951C119.71 96.3613 133.864 89.8186 139.976 86.289C135.666 81.8047 124.586 72.2462 114.746 69.8862Z" fill="white" stroke="#8FD832" stroke-width="2.976"/>
<path d="M80.121 65.0821C90.5965 73.3512 91.3814 79.7207 92.7691 86.6581C87.5281 84.2643 73.3461 87.7722 64.8999 81.3011C56.4537 74.83 52.1494 62.411 51.0531 57.0104C59.3793 60.4505 69.6455 56.813 80.121 65.0821Z" fill="white" stroke="#8FD832" stroke-width="2.976"/>
<path d="M95.0986 83.4007C97.8032 81.9346 104.371 79.2424 109.008 80.202C113.644 81.1616 124.333 83.8005 129.099 85" stroke="#8FD832" stroke-width="2" stroke-linecap="round"/>
<path d="M91.6917 85.9411C91.9498 82.8867 83.3794 77.359 78.4963 75.4693C73.6133 73.5795 65.6707 69.8527 62.0986 66.9998" stroke="#8FD832" stroke-width="2" stroke-linecap="round"/>
<path d="M84.0986 78.5C83.0986 78.8333 80.6986 79.5 79.0986 79.5" stroke="#8FD832" stroke-linecap="round"/>
<path d="M76.0986 75C74.4986 75.3333 70.6586 76 68.0986 76" stroke="#8FD832" stroke-linecap="round"/>
<path d="M75.8881 74.4731C74.4934 72.415 74.4934 69.415 72.0986 67.3569" stroke="#8FD832" stroke-linecap="round"/>
<path d="M75.8881 74.4731C74.4934 72.415 74.4934 69.415 72.0986 67.3569" stroke="#8FD832" stroke-linecap="round"/>
<path d="M110.599 74.5C109.138 76.512 105.872 77.0333 104.752 79.9856" stroke="#8FD832" stroke-linecap="round"/>
<path d="M118.943 78.7038C117.099 79.5001 115.599 80.5001 113.921 80.936" stroke="#8FD832" stroke-linecap="round"/>
<path d="M118.155 85.222C116.687 83.8509 115.599 83 114.099 81.5143" stroke="#8FD832" stroke-linecap="round"/>
<path d="M82.8887 77.8573C81.7963 76.5906 81.5986 75 80.0986 73.3569" stroke="#8FD832" stroke-linecap="round"/>
<path d="M105.099 80.5002C106.377 81.5784 107.858 84.6146 109.599 86.0001" stroke="#8FD832" stroke-linecap="round"/>
</svg>
