<svg width="172" height="162" viewBox="0 0 172 162" fill="none" xmlns="http://www.w3.org/2000/svg">
<path d="M22.3419 119.538L86.2735 80.3076L150.205 119.538L86.2735 159.496L22.3419 119.538Z" fill="#333333" stroke="#93C9FE" stroke-width="3"/>
<path d="M26.7009 102.829L22.3419 67.2308L85.5471 28L149.5 67L122.598 91.9316L84 112.5L26.7009 102.829Z" fill="white"/>
<path d="M86 160V107.5L152 67V121.758L86 160Z" fill="#93C9FE"/>
<path d="M86.2735 161.675V107.162L17.9829 67.2308V119.539L86.2735 161.675Z" fill="#93C9FE"/>
<path d="M22.3419 67.2308L86.2735 28L150.205 67.2308L86.2735 107.188L22.3419 67.2308Z" stroke="#93C9FE" stroke-width="2"/>
<path d="M67.6812 142.786L85.5 109.5L19 67L2.00001 99.584L67.6812 142.786Z" fill="#93C9FE" stroke="white" stroke-width="2"/>
<path d="M105.763 143.556L87 109.5L154 67.5L170 101L105.763 143.556Z" fill="#93C9FE" stroke="white" stroke-width="2"/>
<path d="M68.3871 37.5349L62 40.6047L68.3871 43.6744L71 54L73.3226 43.6744L80 40.6047L73.3226 37.5349L71 30L68.3871 37.5349Z" fill="white" stroke="#0078E8" stroke-width="2"/>
<path d="M89.9677 9.96512L85 12.3953L89.9677 14.8256L92 23L93.8065 14.8256L99 12.3953L93.8065 9.96512L92 4L89.9677 9.96512Z" stroke="#0078E8" stroke-width="2"/>
<path d="M98.9677 53.9651L94 56.3953L98.9677 58.8256L101 67L102.806 58.8256L108 56.3953L102.806 53.9651L101 48L98.9677 53.9651Z" stroke="#0078E8" stroke-width="2"/>
</svg>
