<svg width="144" height="109" viewBox="0 0 144 109" fill="none" xmlns="http://www.w3.org/2000/svg">
<path d="M73.0294 19.7574C68.0037 25.9429 66.8776 39.9596 68.8078 49.8677C70.9953 47.9375 72.7769 41.9927 77.4093 38.2868C83.1997 33.6544 90.9147 27.2197 92.3555 23.6176C93.8996 19.7574 90.4254 2 90.4254 2C90.4254 2 78.0477 13.5809 73.0294 19.7574Z" stroke="#0078E8" stroke-width="2"/>
<path d="M51.9314 34.8125C43.8262 30.9529 45.5173 9.97789 48.3482 3.54407C55.0394 7.53304 66.26 18.3676 68.4217 26.7058C70.5835 35.0441 70.2232 45.1066 68.4218 49.4816C64.5615 45.4926 60.038 38.6727 51.9314 34.8125Z" stroke="#93C9FE" stroke-width="3"/>
<path d="M63.7647 61.8345C71.4853 65.5404 83.967 66.2095 89.2427 66.0808L95.8052 58.7463C90.5294 57.3308 80.2096 53.8051 81.136 51.0257C82.2941 47.5514 86.9265 51.0257 94.261 51.0257C101.596 51.0257 111.632 54.886 120.511 56.4301C129.39 57.9742 136.095 69.5118 137.496 76.1176C140.199 88.8566 141.099 94.7757 142.129 107H112.018C110.86 99.408 112.636 83.4521 112.018 80.3639C111.246 76.5036 98.1213 79.2058 91.1728 80.3639C84.2243 81.522 73.0294 74.9595 66.0809 73.0294C59.1324 71.0992 45.2353 61.8345 40.2169 58.7463C35.1986 55.658 34.4265 52.1838 37.5147 51.0257C40.603 49.8676 54.114 57.2022 63.7647 61.8345Z" fill="#93C9FE" stroke="#93C9FE" stroke-width="3"/>
<path d="M73.6177 63.459C66.5618 66.8416 55.1547 67.4523 50.3331 67.3349L44.3356 60.6402C49.1572 59.3483 58.5886 56.1302 57.7419 53.5932C56.6835 50.4221 52.4499 53.5932 45.7468 53.5932C39.0437 53.5932 29.8709 57.1167 21.7566 58.5261C13.6423 59.9355 7.51416 70.4665 6.23357 76.4959C3.76398 88.1234 2.9408 93.5261 2 104.684H29.5182C30.5765 97.7543 28.9537 83.1906 29.5182 80.3718C30.2237 76.8483 42.2188 79.3147 48.5692 80.3718C54.9195 81.4288 65.1506 75.4389 71.501 73.6771C77.8513 71.9154 90.552 63.459 95.1383 60.6402C99.7247 57.8214 100.43 54.6503 97.6079 53.5932C94.7855 52.5362 82.4377 59.2308 73.6177 63.459Z" fill="#0078E8" stroke="#0078E8" stroke-width="3"/>
<path d="M68.3971 48.7095C65.3088 41.8897 58.0515 25.9338 53.7279 16.6691C49.4044 7.40436 48.3235 4.05877 48.3235 3.54407" stroke="#93C9FE" stroke-width="2"/>
<path d="M46.0073 22.8455C45.6985 20.6838 47.1654 10.1066 47.9375 5.08818L48.3235 4.70215L59.5184 29.022L67.239 47.1654L65.3088 46.0073C62.7353 43.3051 56.8934 37.5147 54.114 35.9705C50.6397 34.0404 46.3934 25.5477 46.0073 22.8455Z" fill="#93C9FE"/>
</svg>
