<svg width="187" height="206" viewBox="0 0 187 206" fill="none" xmlns="http://www.w3.org/2000/svg">
<path opacity="0.5" d="M159.4 13.6595C171.973 26.5399 175.189 48.3488 179.868 68.4012C184.546 88.3073 190.833 106.603 183.962 118.459C177.236 130.315 157.207 135.584 141.709 150.953C126.065 166.322 114.808 191.497 96.5325 201.157C78.2572 210.964 52.9641 204.963 32.3496 191.35C11.8812 177.592 -4.05483 156.076 0.91605 136.17C5.74073 116.117 31.3262 97.6749 44.7768 81.2816C58.3736 65.0348 59.9819 50.837 67.7306 36.493C75.4793 22.1489 89.5148 7.65843 107.351 2.38917C125.334 -3.02645 146.972 0.779123 159.4 13.6595Z" fill="#DFDFDF"/>
<path d="M36.3419 142.538L100.274 103.308L164.205 142.538L100.274 182.496L36.3419 142.538Z" fill="#333333" stroke="#93C9FE" stroke-width="3"/>
<path d="M40.7009 125.829L36.3419 90.2308L99.5471 51L163.5 90L136.598 114.932L98 135.5L40.7009 125.829Z" fill="white"/>
<path d="M100 183V130.5L166 90V144.758L100 183Z" fill="#93C9FE"/>
<path d="M100.274 184.675V130.162L31.9829 90.231V142.539L100.274 184.675Z" fill="#93C9FE"/>
<path d="M36.3419 90.2308L100.274 51L164.205 90.2308L100.274 130.188L36.3419 90.2308Z" stroke="#93C9FE" stroke-width="2"/>
<path d="M81.6812 165.786L99.5 132.5L33 90L16 122.584L81.6812 165.786Z" fill="#93C9FE" stroke="white" stroke-width="2"/>
<path d="M119.763 166.556L101 132.5L168 90.5L184 124L119.763 166.556Z" fill="#93C9FE" stroke="white" stroke-width="2"/>
<path d="M82.3871 60.5349L76 63.6047L82.3871 66.6744L85 77L87.3226 66.6744L94 63.6047L87.3226 60.5349L85 53L82.3871 60.5349Z" fill="#FFCD1C" stroke="#FFCD1C" stroke-width="2"/>
<path d="M103.968 32.9651L99 35.3953L103.968 37.8256L106 46L107.806 37.8256L113 35.3953L107.806 32.9651L106 27L103.968 32.9651Z" fill="#FFCD1C" stroke="#FFCD1C" stroke-width="2"/>
<path d="M112.968 76.9651L108 79.3953L112.968 81.8256L115 90L116.806 81.8256L122 79.3953L116.806 76.9651L115 71L112.968 76.9651Z" fill="#FFCD1C" stroke="#FFCD1C" stroke-width="2"/>
</svg>
