<svg width="168" height="148" viewBox="0 0 168 148" fill="none" xmlns="http://www.w3.org/2000/svg">
<path d="M19 106.138L82 67L145 106.138L82 146L19 106.138Z" fill="#4074A7" stroke="#4074A7" stroke-width="3"/>
<path d="M36 67.5L17 54L83.5 13.5L149.5 54L116.5 77L83.5 96.5L36 67.5Z" fill="#4074A7"/>
<path d="M83 147V94.5L149 54V108.758L83 147Z" fill="#0D3B68"/>
<path d="M83 147V94.1662L17 54V106.615L83 147Z" fill="#0D3B68"/>
<path d="M19.3419 54.2308L83.2735 15L147.205 54.2308L83.2735 94.188L19.3419 54.2308Z" stroke="#4074A7" stroke-width="2"/>
<path d="M65.6812 128.786L83.5 95.5001L17 53.916L1.52588e-05 86.5L65.6812 128.786Z" fill="#3E9CF3"/>
<path d="M102 129.5L83.2373 95.4444L149.5 54L168 86.5L102 129.5Z" fill="#3E9CF3"/>
<path d="M65.3871 30.5349L59 33.6047L65.3871 36.6744L68 47L70.3226 36.6744L77 33.6047L70.3226 30.5349L68 23L65.3871 30.5349Z" fill="#FFCD1C" stroke="#FFCD1C" stroke-width="2"/>
<path d="M86.9677 9.96512L82 12.3953L86.9677 14.8256L89 23L90.8065 14.8256L96 12.3953L90.8065 9.96512L89 4L86.9677 9.96512Z" fill="#FFCD1C" stroke="#FFCD1C" stroke-width="2"/>
<path d="M95.9677 46.9651L91 49.3953L95.9677 51.8256L98 60L99.8065 51.8256L105 49.3953L99.8065 46.9651L98 41L95.9677 46.9651Z" fill="#FFCD1C" stroke="#FFCD1C" stroke-width="2"/>
</svg>
