<svg width="196" height="187" viewBox="0 0 196 187" fill="none" xmlns="http://www.w3.org/2000/svg">
<path d="M147.426 10.6465C165.805 20.1652 183.235 35.157 191.179 54.3133C199.123 73.5886 197.345 97.1472 185.132 111.782C172.8 126.417 149.916 132.009 132.249 145.216C114.582 158.305 102.25 179.127 86.3615 183.886C70.4729 188.645 51.1456 177.461 35.9684 163.54C20.9098 149.5 10.0012 132.604 4.19114 114.281C-1.50031 95.8384 -2.09317 75.9682 6.79972 62.4042C15.6926 48.8401 33.9527 41.7011 49.3671 31.2306C64.9 20.7601 77.35 6.95803 93.3573 2.07973C109.364 -2.79858 128.929 1.24684 147.426 10.6465Z" fill="#EDEDED"/>
<circle cx="117" cy="115" r="70" fill="white" stroke="#93C9FE" stroke-width="4"/>
<path d="M141 58.8048C143.81 58.8048 148.805 57.2439 150.951 56.4634H155.049L170.854 72.2683L179.049 85.7317L186.073 103.878L183.732 109.732C182.171 113.634 179.049 122.258 179.049 125.537C179.049 129.634 179.634 133.732 179.049 134.902C178.58 135.839 174.561 138.415 172.61 139.585V143.098C171.829 144.073 169.566 146.844 166.756 150.122C163.244 154.219 157.39 156.561 156.22 155.39C155.049 154.219 155.049 147.195 155.049 143.098V128.463C155.049 126.707 153.293 122.61 153.293 121.439C153.293 120.502 152.512 117.146 152.122 115.585C151.732 115.195 150.132 114.18 146.854 113.244C142.756 112.073 138.659 114.415 136.317 115C133.976 115.585 133.976 113.244 130.463 113.244C126.951 113.244 123.439 106.219 122.854 105.634C122.268 105.049 121.683 100.951 121.683 99.1951C121.683 97.439 120.512 94.5122 120.512 93.3414C120.512 92.1707 122.854 89.2439 124.61 87.4878C126.015 86.0829 127.927 84.9512 128.707 84.5609V80.4634C128.707 78.7073 127.537 78.1219 125.781 76.9512C124.024 75.7805 127.537 72.2683 127.537 69.9268C127.537 68.0536 129.098 67.9756 129.878 68.1707C129.293 67.9756 128.005 67.117 127.537 65.2439C127.068 63.3707 129.293 63.6829 130.463 64.0731L133.976 58.8048H141Z" fill="#93C9FE" stroke="#93C9FE"/>
<path d="M87.7317 58.8051C86.3268 59.7417 82.6585 56.066 81.878 54.7002C76.4146 58.6026 66.4244 68.288 63.1463 71.0978C59.0487 74.61 54.9512 85.1465 52.6097 87.488C50.7366 89.3612 49.4878 101.537 49.0975 107.39L51.439 110.317C52.2195 110.317 53.7805 110.434 53.7805 110.903C53.7805 111.371 54.5609 112.659 54.9512 113.244L57.878 115C57.878 115.781 57.9951 117.576 58.4634 118.512C58.9317 119.449 61 120.073 61.9756 120.268V124.366C61.9756 126.122 62.5609 129.049 62.5609 129.634C62.5609 130.22 60.2195 131.976 60.8049 133.147C61.3902 134.317 60.2195 137.829 60.2195 138.415C60.2195 139 67.2439 148.951 68.4146 149.537C69.5853 150.122 73.0975 151.293 74.2683 151.878C75.439 152.464 81.878 168.854 83.6341 171.195C85.3902 173.537 93 178.805 95.9268 178.805C98.8536 178.805 98.2683 177.634 98.2683 176.464C98.2683 175.293 94.1707 171.195 94.7561 171.195C95.2244 171.195 97.2927 170.415 98.2683 170.025C97.878 169.049 96.9805 166.981 96.5122 166.512C95.9268 165.927 97.6829 161.244 98.2683 160.073C98.8536 158.903 102.951 155.39 104.122 154.22C105.059 153.283 105.293 149.537 105.293 147.781C106.268 146.025 108.337 142.044 108.805 140.171C109.39 137.829 107.634 136.073 107.049 134.903C106.463 133.732 101.195 133.732 100.024 133.732C99.0878 133.732 93.7805 131 91.2439 129.634C90.4634 128.659 88.4341 126.473 86.5609 125.537C84.6878 124.6 83.439 124.756 83.0488 124.951C82.4634 124.366 81.0585 123.078 80.1219 122.61C78.9512 122.025 73.0975 120.854 73.0975 119.683C73.0975 118.747 67.2439 116.561 64.317 115.586C63.9268 114.415 63.1463 111.722 63.1463 110.317C63.1463 108.912 61.1951 107.781 60.2195 107.39C59.0488 107 56.5902 105.986 56.1219 105.049C55.5366 103.878 56.7073 99.7807 57.878 96.8539C58.8146 94.5124 61.7805 94.3173 63.1463 94.5124C63.3414 96.4636 63.8488 100.483 64.317 100.951C64.9024 101.537 67.2439 100.366 68.4146 98.61C69.3512 97.2051 68.8048 93.3417 68.4146 91.5856C70.1707 90.4148 73.8 87.8392 74.2683 86.9026C74.8536 85.7319 75.439 83.9758 76.0244 82.2197C76.6097 80.4636 78.3658 82.2197 81.2927 82.2197C84.2195 82.2197 80.7073 78.1221 81.878 78.1221C83.0488 78.1221 84.8048 78.1221 85.9756 77.5368C87.1463 76.9514 90.0731 75.1953 91.2439 74.61C92.4146 74.0246 91.2439 73.4392 90.0731 72.2685C88.9024 71.0978 93.5853 69.927 94.7561 69.3417C95.9268 68.7563 96.5122 67.0002 96.5122 64.6587C96.5122 62.7856 95.3414 59.5856 94.7561 58.2197H92.4146C91.439 58.0246 89.1366 57.8685 87.7317 58.8051Z" fill="#93C9FE" stroke="#93C9FE"/>
<path d="M95.7874 104.108C100.04 99.8546 106.936 99.8546 111.189 104.108L131.869 124.788L116.468 140.189L95.7874 119.509C91.5345 115.256 91.5345 108.36 95.7874 104.108Z" fill="white" stroke="#E03271" stroke-width="3"/>
<path d="M137.537 103.718C141.79 107.971 141.79 114.867 137.537 119.12L116.468 140.189L101.067 124.788L122.136 103.718C126.389 99.4654 133.284 99.4654 137.537 103.718Z" fill="#0078E8" stroke="#E03271" stroke-width="3"/>
<path d="M97.0288 100.383C101.282 96.1305 108.177 96.1305 112.43 100.383L133.11 121.064L117.709 136.465L97.0288 115.785C92.7759 111.532 92.7759 104.636 97.0288 100.383Z" fill="white" stroke="#E03271" stroke-width="3"/>
<path d="M138.778 99.9942C143.031 104.247 143.031 111.142 138.778 115.395L117.709 136.465L102.308 121.064L123.377 99.9942C127.63 95.7413 134.526 95.7413 138.778 99.9942Z" fill="white" stroke="#E03271" stroke-width="3"/>
<path d="M95 115.5L117 138" stroke="#E03271" stroke-width="2"/>
</svg>
