<svg width="334" height="603" viewBox="0 0 334 603" fill="none" xmlns="http://www.w3.org/2000/svg">
<rect x="233.888" y="81.0688" width="18.2017" height="32.5236" rx="1.56498" stroke="#93C9FE" stroke-width="1.04332"/>
<rect x="240.527" y="83.2327" width="4.92315" height="0.895119" rx="0.447559" fill="#93C9FE"/>
<rect x="241.87" y="108.743" width="2.68536" height="2.68536" rx="1.34268" fill="#93C9FE"/>
<mask id="path-4-inside-1" fill="white">
<path fill-rule="evenodd" clip-rule="evenodd" d="M109.775 99.3762L89.5552 84.4699L92.3548 109.433L98.2142 102.867L102.344 110.019L105.748 108.054L101.706 101.053L109.775 99.3762Z"/>
</mask>
<path fill-rule="evenodd" clip-rule="evenodd" d="M109.775 99.3762L89.5552 84.4699L92.3548 109.433L98.2142 102.867L102.344 110.019L105.748 108.054L101.706 101.053L109.775 99.3762Z" fill="#93C9FE"/>
<path d="M89.5552 84.4699L90.1743 83.6301L88.2522 82.2131L88.5184 84.5862L89.5552 84.4699ZM109.775 99.3762L109.987 100.398L112.274 99.9224L110.394 98.5364L109.775 99.3762ZM92.3548 109.433L91.318 109.55L91.5783 111.871L93.1333 110.128L92.3548 109.433ZM98.2142 102.867L99.1177 102.345L98.3963 101.095L97.4357 102.172L98.2142 102.867ZM102.344 110.019L101.44 110.541L101.962 111.444L102.865 110.923L102.344 110.019ZM105.748 108.054L106.269 108.957L107.173 108.436L106.651 107.532L105.748 108.054ZM101.706 101.053L101.493 100.032L100.081 100.325L100.802 101.575L101.706 101.053ZM88.9361 85.3097L109.155 100.216L110.394 98.5364L90.1743 83.6301L88.9361 85.3097ZM93.3916 109.317L90.592 84.3536L88.5184 84.5862L91.318 109.55L93.3916 109.317ZM97.4357 102.172L91.5763 108.739L93.1333 110.128L98.9927 103.561L97.4357 102.172ZM103.247 109.497L99.1177 102.345L97.3107 103.388L101.44 110.541L103.247 109.497ZM105.226 107.15L101.822 109.116L102.865 110.923L106.269 108.957L105.226 107.15ZM100.802 101.575L104.844 108.576L106.651 107.532L102.609 100.532L100.802 101.575ZM109.562 98.3547L101.493 100.032L101.918 102.075L109.987 100.398L109.562 98.3547Z" fill="#93C9FE" mask="url(#path-4-inside-1)"/>
<mask id="path-6-inside-2" fill="white">
<path fill-rule="evenodd" clip-rule="evenodd" d="M330.599 181.134L310.38 166.227L313.179 191.191L319.039 184.624L323.168 191.777L326.572 189.811L322.53 182.811L330.599 181.134Z"/>
</mask>
<path fill-rule="evenodd" clip-rule="evenodd" d="M330.599 181.134L310.38 166.227L313.179 191.191L319.039 184.624L323.168 191.777L326.572 189.811L322.53 182.811L330.599 181.134Z" fill="#93C9FE"/>
<path d="M310.38 166.227L310.999 165.388L309.077 163.971L309.343 166.344L310.38 166.227ZM330.599 181.134L330.811 182.155L333.098 181.68L331.218 180.294L330.599 181.134ZM313.179 191.191L312.142 191.307L312.403 193.628L313.958 191.886L313.179 191.191ZM319.039 184.624L319.942 184.102L319.221 182.853L318.26 183.93L319.039 184.624ZM323.168 191.777L322.265 192.298L322.786 193.202L323.69 192.68L323.168 191.777ZM326.572 189.811L327.094 190.715L327.997 190.193L327.475 189.29L326.572 189.811ZM322.53 182.811L322.318 181.789L320.905 182.083L321.627 183.332L322.53 182.811ZM309.76 167.067L329.98 181.974L331.218 180.294L310.999 165.388L309.76 167.067ZM314.216 191.075L311.416 166.111L309.343 166.344L312.142 191.307L314.216 191.075ZM318.26 183.93L312.401 190.496L313.958 191.886L319.817 185.319L318.26 183.93ZM324.072 191.255L319.942 184.102L318.135 185.146L322.265 192.298L324.072 191.255ZM326.05 188.908L322.646 190.873L323.69 192.68L327.094 190.715L326.05 188.908ZM321.627 183.332L325.668 190.333L327.475 189.29L323.434 182.289L321.627 183.332ZM330.387 180.112L322.318 181.789L322.742 183.832L330.811 182.155L330.387 180.112Z" fill="#93C9FE" mask="url(#path-6-inside-2)"/>
<circle cx="12.4148" cy="168.145" r="2.00156" transform="rotate(27.0062 12.4148 168.145)" fill="#93C9FE"/>
<circle cx="7.7847" cy="179.264" r="2.00156" transform="rotate(27.0062 7.7847 179.264)" fill="#93C9FE"/>
<circle cx="21.9643" cy="179.925" r="2.00156" transform="rotate(27.0062 21.9643 179.925)" fill="#93C9FE"/>
<circle cx="23.5774" cy="194.536" r="2.00156" transform="rotate(27.0062 23.5774 194.536)" fill="#93C9FE"/>
<circle cx="33.8623" cy="172.855" r="2.00156" transform="rotate(27.0062 33.8623 172.855)" fill="#93C9FE"/>
<path d="M33.9295 173.062L12.4122 168.489L7.78196 179.609L23.5706 194.753M33.9295 173.062L23.5706 194.753M33.9295 173.062L22.2386 180.064L23.5706 194.753" stroke="#93C9FE" stroke-width="0.881202"/>
<path d="M7.78205 179.609L22.306 180.271L12.5521 168.215" stroke="#93C9FE" stroke-width="0.881202"/>
<path d="M165.366 190.125H173.465V193.22C173.465 194.357 172.543 195.28 171.406 195.28H167.426C166.288 195.28 165.366 194.357 165.366 193.22V190.125Z" fill="#93C9FE"/>
<path d="M167.575 194.543H171.256V194.543C171.256 195.356 170.597 196.016 169.784 196.016H169.047C168.234 196.016 167.575 195.356 167.575 194.543V194.543Z" fill="#93C9FE"/>
<mask id="path-17-inside-3" fill="white">
<path fill-rule="evenodd" clip-rule="evenodd" d="M178.417 179.839C179.928 177.903 180.828 175.468 180.828 172.822C180.828 166.519 175.719 161.409 169.416 161.409C163.113 161.409 158.003 166.519 158.003 172.822C158.003 175.468 158.903 177.903 160.414 179.838L165.366 189.389H173.465L178.417 179.839Z"/>
</mask>
<path d="M178.417 179.839L177.335 178.994L177.257 179.094L177.198 179.207L178.417 179.839ZM160.414 179.838L161.633 179.206L161.574 179.094L161.496 178.994L160.414 179.838ZM165.366 189.389L164.147 190.021L164.531 190.762H165.366V189.389ZM173.465 189.389V190.762H174.3L174.684 190.021L173.465 189.389ZM179.455 172.822C179.455 175.151 178.664 177.291 177.335 178.994L179.5 180.684C181.192 178.515 182.202 175.785 182.202 172.822H179.455ZM169.416 162.783C174.96 162.783 179.455 167.277 179.455 172.822H182.202C182.202 165.761 176.477 160.036 169.416 160.036V162.783ZM159.376 172.822C159.376 167.277 163.871 162.783 169.416 162.783V160.036C162.354 160.036 156.63 165.761 156.63 172.822H159.376ZM161.496 178.994C160.167 177.291 159.376 175.151 159.376 172.822H156.63C156.63 175.785 157.639 178.515 159.331 180.683L161.496 178.994ZM166.585 188.757L161.633 179.206L159.195 180.471L164.147 190.021L166.585 188.757ZM173.465 188.016H165.366V190.762H173.465V188.016ZM177.198 179.207L172.246 188.757L174.684 190.021L179.636 180.471L177.198 179.207Z" fill="#93C9FE" mask="url(#path-17-inside-3)"/>
<path d="M168.145 186.399C167.654 182.227 165.2 175.355 164.832 173.882C164.51 172.594 164.322 170.569 166.304 170.569C167.777 170.569 169.423 174.618 167.777 174.618C165.936 174.618 168.521 170.245 169.994 170.245C171.466 170.245 171.827 172.041 171.827 172.041C171.827 172.041 172.931 174.618 171.458 174.618C169.986 174.618 173.152 169.832 174.035 171.305C174.919 172.778 171.581 181.368 170.722 186.399" stroke="#93C9FE" stroke-width="0.686573"/>
<path d="M172.397 3.53315C173 3.53315 174.071 3.19839 174.531 3.03101H175.41L178.8 6.42045L180.557 9.30775L182.063 13.1993L181.561 14.4547C181.227 15.2916 180.557 17.1411 180.557 17.8441C180.557 18.7229 180.683 19.6016 180.557 19.8527C180.457 20.0535 179.595 20.6059 179.176 20.857V21.6102C179.009 21.8194 178.523 22.4136 177.921 23.1166C177.168 23.9953 175.912 24.4975 175.661 24.2464C175.41 23.9953 175.41 22.4889 175.41 21.6102V18.4718C175.41 18.0952 175.033 17.2165 175.033 16.9654C175.033 16.7645 174.866 16.0448 174.782 15.71C174.699 15.6263 174.356 15.4088 173.653 15.2079C172.774 14.9568 171.895 15.459 171.393 15.5845C170.891 15.71 170.891 15.2079 170.138 15.2079C169.384 15.2079 168.631 13.7015 168.506 13.5759C168.38 13.4504 168.255 12.5717 168.255 12.1951C168.255 11.8185 168.004 11.1908 168.004 10.9397C168.004 10.6886 168.506 10.061 168.882 9.68436C169.184 9.38308 169.594 9.14037 169.761 9.05668V8.17794C169.761 7.80133 169.51 7.6758 169.133 7.42473C168.757 7.17366 169.51 6.42045 169.51 5.91831C169.51 5.5166 169.845 5.49986 170.012 5.54171C169.887 5.49986 169.61 5.31574 169.51 4.91403C169.41 4.51232 169.887 4.57927 170.138 4.66296L170.891 3.53315H172.397Z" fill="#93C9FE" stroke="#93C9FE" stroke-width="0.327224"/>
<path d="M160.974 3.5329C160.672 3.73376 159.886 2.9455 159.718 2.65259C158.547 3.48949 156.404 5.56657 155.701 6.16914C154.822 6.92235 153.944 9.18197 153.442 9.68411C153.04 10.0858 152.772 12.697 152.688 13.9523L153.19 14.58C153.358 14.58 153.693 14.6051 153.693 14.7055C153.693 14.8059 153.86 15.0821 153.944 15.2077L154.571 15.5843C154.571 15.7516 154.596 16.1366 154.697 16.3375C154.797 16.5383 155.241 16.6722 155.45 16.7141V17.5928C155.45 17.9694 155.576 18.5971 155.576 18.7226C155.576 18.8482 155.074 19.2248 155.199 19.4758C155.325 19.7269 155.074 20.4801 155.074 20.6057C155.074 20.7312 156.58 22.8653 156.831 22.9908C157.082 23.1164 157.835 23.3674 158.086 23.493C158.337 23.6185 159.718 27.1335 160.095 27.6356C160.472 28.1378 162.103 29.2676 162.731 29.2676C163.359 29.2676 163.233 29.0165 163.233 28.7654C163.233 28.5144 162.355 27.6356 162.48 27.6356C162.581 27.6356 163.024 27.4682 163.233 27.3845C163.15 27.1753 162.957 26.7318 162.857 26.6313C162.731 26.5058 163.108 25.5015 163.233 25.2505C163.359 24.9994 164.238 24.2462 164.489 23.9951C164.689 23.7942 164.74 22.9908 164.74 22.6142C164.949 22.2376 165.392 21.384 165.493 20.9823C165.618 20.4801 165.242 20.1035 165.116 19.8524C164.991 19.6014 163.861 19.6014 163.61 19.6014C163.409 19.6014 162.271 19.0155 161.727 18.7226C161.559 18.5134 161.124 18.0447 160.723 17.8439C160.321 17.643 160.053 17.6765 159.969 17.7184C159.844 17.5928 159.543 17.3166 159.342 17.2162C159.091 17.0907 157.835 16.8396 157.835 16.5885C157.835 16.3877 156.58 15.919 155.952 15.7098C155.869 15.4587 155.701 14.8813 155.701 14.58C155.701 14.2787 155.283 14.036 155.074 13.9523C154.822 13.8686 154.295 13.651 154.195 13.4502C154.069 13.1991 154.32 12.3203 154.571 11.6927C154.772 11.1905 155.408 11.1487 155.701 11.1905C155.743 11.609 155.852 12.471 155.952 12.5714C156.078 12.697 156.58 12.4459 156.831 12.0693C157.032 11.768 156.915 10.9395 156.831 10.5629C157.208 10.3118 157.986 9.75944 158.086 9.55858C158.212 9.30751 158.337 8.93091 158.463 8.5543C158.588 8.1777 158.965 8.5543 159.593 8.5543C160.22 8.5543 159.467 7.67556 159.718 7.67556C159.969 7.67556 160.346 7.67556 160.597 7.55002C160.848 7.42449 161.476 7.04788 161.727 6.92235C161.978 6.79681 161.727 6.67128 161.476 6.42021C161.225 6.16914 162.229 5.91807 162.48 5.79253C162.731 5.667 162.857 5.29039 162.857 4.78825C162.857 4.38654 162.606 3.70028 162.48 3.40737H161.978C161.769 3.36552 161.275 3.33205 160.974 3.5329Z" fill="#93C9FE" stroke="#93C9FE" stroke-width="0.327224"/>
<circle cx="167.25" cy="15.5846" r="14.7864" stroke="#93C9FE" stroke-width="1.3089"/>
<mask id="path-23-inside-4" fill="white">
<path fill-rule="evenodd" clip-rule="evenodd" d="M12.5054 3.41297C9.64463 0.251992 5.00638 0.251992 2.14559 3.41297C-0.715197 6.57395 -0.715197 11.6989 2.14559 14.8599L4.85721 17.856L4.84467 17.8699L15.2045 29.3168L15.217 29.3029L15.2295 29.3167L25.5893 17.8698L25.5769 17.856L28.2884 14.86C31.1492 11.699 31.1492 6.57406 28.2884 3.41308C25.4276 0.252102 20.7894 0.252101 17.9286 3.41308L15.217 6.40913L12.5054 3.41297Z"/>
</mask>
<path d="M2.14559 3.41297L1.00985 2.38508L1.00985 2.38508L2.14559 3.41297ZM12.5054 3.41297L13.6412 2.38508L13.6412 2.38508L12.5054 3.41297ZM2.14559 14.8599L3.28133 13.832L3.28133 13.832L2.14559 14.8599ZM4.85721 17.856L5.99293 18.8839L6.92324 17.8561L5.99295 16.8282L4.85721 17.856ZM4.84467 17.8699L3.70895 16.842L2.77864 17.8699L3.70892 18.8978L4.84467 17.8699ZM15.2045 29.3168L14.0688 30.3447L15.2045 31.5996L16.3402 30.3447L15.2045 29.3168ZM15.217 29.3029L16.3528 28.275L15.217 27.0202L14.0813 28.2751L15.217 29.3029ZM15.2295 29.3167L14.0938 30.3446L15.2295 31.5995L16.3652 30.3446L15.2295 29.3167ZM25.5893 17.8698L26.7251 18.8977L27.6554 17.8697L26.725 16.8419L25.5893 17.8698ZM25.5769 17.856L24.4411 16.8282L23.5108 17.8561L24.4412 18.884L25.5769 17.856ZM28.2884 14.86L29.4241 15.8879L29.4241 15.8879L28.2884 14.86ZM28.2884 3.41308L29.4241 2.38519L29.4241 2.38519L28.2884 3.41308ZM17.9286 3.41308L16.7928 2.38519L16.7928 2.38519L17.9286 3.41308ZM15.217 6.40913L14.0813 7.43701L15.217 8.69193L16.3528 7.43701L15.217 6.40913ZM3.28133 4.44085C5.53402 1.95179 9.11699 1.95178 11.3697 4.44085L13.6412 2.38508C10.1723 -1.4478 4.47873 -1.4478 1.00985 2.38508L3.28133 4.44085ZM3.28133 13.832C0.948643 11.2545 0.948643 7.01832 3.28133 4.44085L1.00985 2.38508C-2.37904 6.12957 -2.37904 12.1433 1.00985 15.8878L3.28133 13.832ZM5.99295 16.8282L3.28133 13.832L1.00985 15.8878L3.72147 18.8839L5.99295 16.8282ZM5.98039 18.8978L5.99293 18.8839L3.72149 16.8281L3.70895 16.842L5.98039 18.8978ZM16.3402 28.2889L5.98041 16.842L3.70892 18.8978L14.0688 30.3447L16.3402 28.2889ZM14.0813 28.2751L14.0688 28.2889L16.3402 30.3447L16.3528 30.3308L14.0813 28.2751ZM16.3652 28.2888L16.3528 28.275L14.0813 30.3309L14.0938 30.3446L16.3652 28.2888ZM24.4536 16.8419L14.0937 28.2888L16.3652 30.3446L26.7251 18.8977L24.4536 16.8419ZM24.4412 18.884L24.4536 18.8977L26.725 16.8419L26.7126 16.8281L24.4412 18.884ZM27.1527 13.8321L24.4411 16.8282L26.7126 18.8839L29.4241 15.8879L27.1527 13.8321ZM27.1527 4.44096C29.4853 7.01843 29.4853 11.2546 27.1527 13.8321L29.4241 15.8879C32.813 12.1434 32.813 6.12968 29.4241 2.38519L27.1527 4.44096ZM19.0643 4.44096C21.317 1.95189 24.9 1.95189 27.1527 4.44096L29.4241 2.38519C25.9553 -1.44769 20.2617 -1.44769 16.7928 2.38519L19.0643 4.44096ZM16.3528 7.43701L19.0643 4.44096L16.7928 2.38519L14.0813 5.38124L16.3528 7.43701ZM11.3697 4.44085L14.0813 7.43701L16.3528 5.38124L13.6412 2.38508L11.3697 4.44085Z" fill="#93C9FE" mask="url(#path-23-inside-4)"/>
<path d="M16.1122 6.8606L6.26587 17.602" stroke="#93C9FE" stroke-width="1.53104"/>
<rect x="304.068" y="1.04248" width="5.37071" height="5.37071" fill="#93C9FE"/>
<rect x="327.341" y="1.04224" width="5.37071" height="5.37071" fill="#93C9FE"/>
<rect x="327.341" y="24.7627" width="5.37071" height="5.37071" fill="#93C9FE"/>
<rect x="304.068" y="24.7627" width="5.37071" height="5.37071" fill="#93C9FE"/>
<rect x="307.588" y="4.5622" width="22.0513" height="22.0513" stroke="#93C9FE" stroke-width="1.66932"/>
<path d="M314.487 11.3344H317.219V20.175H318.893V11.3344H321.61V9.96865H314.487V11.3344Z" fill="#93C9FE"/>
<mask id="path-32-inside-5" fill="white">
<path fill-rule="evenodd" clip-rule="evenodd" d="M268.043 260.117C270.903 256.956 270.903 251.832 268.043 248.671C265.182 245.51 260.544 245.51 257.683 248.671L254.971 251.667L252.26 248.671C249.399 245.51 244.761 245.51 241.9 248.671C239.039 251.832 239.039 256.957 241.9 260.118L244.611 263.114L244.599 263.127L254.959 274.574L254.971 274.561L254.984 274.574L265.344 263.128L265.331 263.114L268.043 260.117Z"/>
</mask>
<path d="M268.043 248.671L269.178 247.643L269.178 247.643L268.043 248.671ZM268.043 260.117L269.178 261.145L269.178 261.145L268.043 260.117ZM257.683 248.671L258.819 249.698L258.819 249.698L257.683 248.671ZM254.971 251.667L253.835 252.695L254.971 253.95L256.107 252.695L254.971 251.667ZM252.26 248.671L253.395 247.643L253.395 247.643L252.26 248.671ZM241.9 248.671L240.764 247.643L240.764 247.643L241.9 248.671ZM241.9 260.118L240.764 261.145L240.764 261.145L241.9 260.118ZM244.611 263.114L245.747 264.141L246.677 263.114L245.747 262.086L244.611 263.114ZM244.599 263.127L243.463 262.1L242.533 263.127L243.463 264.155L244.599 263.127ZM254.959 274.574L253.823 275.602L254.959 276.857L256.095 275.602L254.959 274.574ZM254.971 274.561L256.107 273.533L254.971 272.278L253.835 273.533L254.971 274.561ZM254.984 274.574L253.848 275.602L254.984 276.857L256.12 275.602L254.984 274.574ZM265.344 263.128L266.479 264.155L267.41 263.127L266.479 262.1L265.344 263.128ZM265.331 263.114L264.195 262.086L263.265 263.114L264.195 264.142L265.331 263.114ZM266.907 249.698C269.24 252.276 269.24 256.512 266.907 259.09L269.178 261.145C272.567 257.401 272.567 251.387 269.178 247.643L266.907 249.698ZM258.819 249.698C261.071 247.209 264.654 247.209 266.907 249.698L269.178 247.643C265.71 243.81 260.016 243.81 256.547 247.643L258.819 249.698ZM256.107 252.695L258.819 249.698L256.547 247.643L253.835 250.639L256.107 252.695ZM251.124 249.699L253.835 252.695L256.107 250.639L253.395 247.643L251.124 249.699ZM243.036 249.699C245.288 247.21 248.871 247.21 251.124 249.699L253.395 247.643C249.927 243.81 244.233 243.81 240.764 247.643L243.036 249.699ZM243.036 259.09C240.703 256.512 240.703 252.276 243.036 249.699L240.764 247.643C237.375 251.387 237.375 257.401 240.764 261.145L243.036 259.09ZM245.747 262.086L243.036 259.09L240.764 261.145L243.476 264.142L245.747 262.086ZM245.735 264.155L245.747 264.141L243.476 262.086L243.463 262.1L245.735 264.155ZM256.095 273.546L245.735 262.099L243.463 264.155L253.823 275.602L256.095 273.546ZM253.835 273.533L253.823 273.546L256.095 275.602L256.107 275.588L253.835 273.533ZM256.12 273.547L256.107 273.533L253.835 275.588L253.848 275.602L256.12 273.547ZM264.208 262.1L253.848 273.547L256.12 275.602L266.479 264.155L264.208 262.1ZM264.195 264.142L264.208 264.155L266.479 262.1L266.467 262.086L264.195 264.142ZM266.907 259.09L264.195 262.086L266.467 264.142L269.178 261.145L266.907 259.09Z" fill="#93C9FE" mask="url(#path-32-inside-5)"/>
<path d="M255.866 252.118L246.02 262.86" stroke="#93C9FE" stroke-width="1.53104"/>
<rect x="88.5533" y="244.584" width="18.2017" height="32.5236" rx="1.56498" stroke="#93C9FE" stroke-width="1.04332"/>
<rect x="95.1926" y="246.747" width="4.92315" height="0.895119" rx="0.447559" fill="#93C9FE"/>
<rect x="96.5353" y="272.258" width="2.68536" height="2.68536" rx="1.34268" fill="#93C9FE"/>
<rect x="233.888" y="408.099" width="18.2017" height="32.5236" rx="1.56498" stroke="#93C9FE" stroke-width="1.04332"/>
<rect x="240.527" y="410.262" width="4.92315" height="0.895119" rx="0.447559" fill="#93C9FE"/>
<rect x="241.87" y="435.773" width="2.68536" height="2.68536" rx="1.34268" fill="#93C9FE"/>
<mask id="path-41-inside-6" fill="white">
<path fill-rule="evenodd" clip-rule="evenodd" d="M109.775 426.406L89.5552 411.499L92.3548 436.463L98.2141 429.896L102.344 437.049L105.748 435.084L101.706 428.083L109.775 426.406Z"/>
</mask>
<path fill-rule="evenodd" clip-rule="evenodd" d="M109.775 426.406L89.5552 411.499L92.3548 436.463L98.2141 429.896L102.344 437.049L105.748 435.084L101.706 428.083L109.775 426.406Z" fill="#93C9FE"/>
<path d="M89.5552 411.499L90.1743 410.66L88.2522 409.243L88.5184 411.616L89.5552 411.499ZM109.775 426.406L109.987 427.427L112.274 426.952L110.394 425.566L109.775 426.406ZM92.3548 436.463L91.318 436.579L91.5783 438.9L93.1333 437.158L92.3548 436.463ZM98.2141 429.896L99.1177 429.375L98.3963 428.125L97.4356 429.202L98.2141 429.896ZM102.344 437.049L101.44 437.571L101.962 438.474L102.865 437.952L102.344 437.049ZM105.748 435.084L106.269 435.987L107.173 435.466L106.651 434.562L105.748 435.084ZM101.706 428.083L101.493 427.061L100.081 427.355L100.802 428.605L101.706 428.083ZM88.9361 412.339L109.155 427.246L110.394 425.566L90.1743 410.66L88.9361 412.339ZM93.3916 436.347L90.592 411.383L88.5184 411.616L91.318 436.579L93.3916 436.347ZM97.4356 429.202L91.5763 435.768L93.1333 437.158L98.9926 430.591L97.4356 429.202ZM103.247 436.527L99.1177 429.375L97.3106 430.418L101.44 437.571L103.247 436.527ZM105.226 434.18L101.822 436.145L102.865 437.952L106.269 435.987L105.226 434.18ZM100.802 428.605L104.844 435.605L106.651 434.562L102.609 427.561L100.802 428.605ZM109.562 425.384L101.493 427.061L101.918 429.104L109.987 427.427L109.562 425.384Z" fill="#93C9FE" mask="url(#path-41-inside-6)"/>
<mask id="path-43-inside-7" fill="white">
<path fill-rule="evenodd" clip-rule="evenodd" d="M330.599 508.163L310.379 493.257L313.179 518.22L319.038 511.654L323.168 518.807L326.572 516.841L322.53 509.84L330.599 508.163Z"/>
</mask>
<path fill-rule="evenodd" clip-rule="evenodd" d="M330.599 508.163L310.379 493.257L313.179 518.22L319.038 511.654L323.168 518.807L326.572 516.841L322.53 509.84L330.599 508.163Z" fill="#93C9FE"/>
<path d="M310.379 493.257L310.999 492.417L309.076 491L309.343 493.373L310.379 493.257ZM330.599 508.163L330.811 509.185L333.098 508.709L331.218 507.323L330.599 508.163ZM313.179 518.22L312.142 518.337L312.402 520.658L313.957 518.915L313.179 518.22ZM319.038 511.654L319.942 511.132L319.22 509.883L318.26 510.959L319.038 511.654ZM323.168 518.807L322.264 519.328L322.786 520.232L323.69 519.71L323.168 518.807ZM326.572 516.841L327.093 517.745L327.997 517.223L327.475 516.32L326.572 516.841ZM322.53 509.84L322.317 508.819L320.905 509.112L321.626 510.362L322.53 509.84ZM309.76 494.097L329.98 509.003L331.218 507.323L310.999 492.417L309.76 494.097ZM314.216 518.104L311.416 493.14L309.343 493.373L312.142 518.337L314.216 518.104ZM318.26 510.959L312.401 517.526L313.957 518.915L319.817 512.348L318.26 510.959ZM324.071 518.285L319.942 511.132L318.135 512.175L322.264 519.328L324.071 518.285ZM326.05 515.938L322.646 517.903L323.69 519.71L327.093 517.745L326.05 515.938ZM321.626 510.362L325.668 517.363L327.475 516.32L323.433 509.319L321.626 510.362ZM330.386 507.142L322.317 508.819L322.742 510.862L330.811 509.185L330.386 507.142Z" fill="#93C9FE" mask="url(#path-43-inside-7)"/>
<circle cx="12.4148" cy="495.174" r="2.00156" transform="rotate(27.0062 12.4148 495.174)" fill="#93C9FE"/>
<circle cx="7.7847" cy="506.294" r="2.00156" transform="rotate(27.0062 7.7847 506.294)" fill="#93C9FE"/>
<circle cx="21.9643" cy="506.954" r="2.00156" transform="rotate(27.0062 21.9643 506.954)" fill="#93C9FE"/>
<circle cx="23.5774" cy="521.565" r="2.00156" transform="rotate(27.0062 23.5774 521.565)" fill="#93C9FE"/>
<circle cx="33.8623" cy="499.884" r="2.00156" transform="rotate(27.0062 33.8623 499.884)" fill="#93C9FE"/>
<path d="M33.9295 500.091L12.4122 495.519L7.78196 506.638L23.5706 521.782M33.9295 500.091L23.5706 521.782M33.9295 500.091L22.2386 507.094L23.5706 521.782" stroke="#93C9FE" stroke-width="0.881202"/>
<path d="M7.78205 506.638L22.306 507.301L12.5521 495.244" stroke="#93C9FE" stroke-width="0.881202"/>
<path d="M165.366 517.155H173.465V520.25C173.465 521.387 172.543 522.309 171.406 522.309H167.426C166.288 522.309 165.366 521.387 165.366 520.25V517.155Z" fill="#93C9FE"/>
<path d="M167.575 521.573H171.256V521.573C171.256 522.386 170.597 523.046 169.784 523.046H169.047C168.234 523.046 167.575 522.386 167.575 521.573V521.573Z" fill="#93C9FE"/>
<mask id="path-54-inside-8" fill="white">
<path fill-rule="evenodd" clip-rule="evenodd" d="M178.418 506.868C179.928 504.933 180.828 502.497 180.828 499.852C180.828 493.549 175.719 488.439 169.416 488.439C163.113 488.439 158.003 493.549 158.003 499.852C158.003 502.497 158.903 504.932 160.413 506.868L165.366 516.419H173.465L178.418 506.868Z"/>
</mask>
<path d="M178.418 506.868L177.335 506.023L177.257 506.123L177.199 506.236L178.418 506.868ZM160.413 506.868L161.632 506.236L161.574 506.123L161.496 506.023L160.413 506.868ZM165.366 516.419L164.147 517.051L164.531 517.792H165.366V516.419ZM173.465 516.419V517.792H174.3L174.684 517.051L173.465 516.419ZM179.455 499.852C179.455 502.181 178.664 504.321 177.335 506.023L179.5 507.713C181.193 505.545 182.202 502.814 182.202 499.852H179.455ZM169.416 489.812C174.96 489.812 179.455 494.307 179.455 499.852H182.202C182.202 492.791 176.477 487.066 169.416 487.066V489.812ZM159.376 499.852C159.376 494.307 163.871 489.812 169.416 489.812V487.066C162.354 487.066 156.63 492.791 156.63 499.852H159.376ZM161.496 506.023C160.167 504.32 159.376 502.18 159.376 499.852H156.63C156.63 502.814 157.639 505.544 159.331 507.713L161.496 506.023ZM166.585 515.787L161.632 506.236L159.194 507.5L164.147 517.051L166.585 515.787ZM173.465 515.046H165.366V517.792H173.465V515.046ZM177.199 506.236L172.246 515.787L174.684 517.051L179.637 507.5L177.199 506.236Z" fill="#93C9FE" mask="url(#path-54-inside-8)"/>
<path d="M168.145 513.429C167.654 509.257 165.2 502.385 164.832 500.912C164.51 499.624 164.322 497.599 166.304 497.599C167.777 497.599 169.423 501.649 167.777 501.649C165.936 501.649 168.521 497.275 169.994 497.275C171.466 497.275 171.827 499.071 171.827 499.071C171.827 499.071 172.931 501.649 171.458 501.649C169.986 501.649 173.152 496.863 174.035 498.335C174.919 499.808 171.581 508.398 170.722 513.429" stroke="#93C9FE" stroke-width="0.686573"/>
<path d="M171.863 330.552C172.465 330.552 173.537 330.217 173.997 330.05H174.876L178.265 333.439L180.022 336.326L181.529 340.218L181.027 341.473C180.692 342.31 180.022 344.16 180.022 344.863C180.022 345.741 180.148 346.62 180.022 346.871C179.922 347.072 179.06 347.624 178.642 347.876V348.629C178.474 348.838 177.989 349.432 177.386 350.135C176.633 351.014 175.378 351.516 175.127 351.265C174.876 351.014 174.876 349.507 174.876 348.629V345.49C174.876 345.114 174.499 344.235 174.499 343.984C174.499 343.783 174.332 343.063 174.248 342.729C174.164 342.645 173.821 342.427 173.118 342.226C172.239 341.975 171.361 342.478 170.858 342.603C170.356 342.729 170.356 342.226 169.603 342.226C168.85 342.226 168.097 340.72 167.971 340.594C167.846 340.469 167.72 339.59 167.72 339.214C167.72 338.837 167.469 338.209 167.469 337.958C167.469 337.707 167.971 337.08 168.348 336.703C168.649 336.402 169.059 336.159 169.226 336.075V335.196C169.226 334.82 168.975 334.694 168.599 334.443C168.222 334.192 168.975 333.439 168.975 332.937C168.975 332.535 169.31 332.518 169.478 332.56C169.352 332.518 169.076 332.334 168.975 331.933C168.875 331.531 169.352 331.598 169.603 331.682L170.356 330.552H171.863Z" fill="#93C9FE" stroke="#93C9FE" stroke-width="0.327224"/>
<path d="M160.439 330.552C160.138 330.753 159.351 329.965 159.184 329.672C158.012 330.509 155.87 332.586 155.167 333.188C154.288 333.941 153.409 336.201 152.907 336.703C152.505 337.105 152.237 339.716 152.154 340.971L152.656 341.599C152.823 341.599 153.158 341.624 153.158 341.725C153.158 341.825 153.325 342.101 153.409 342.227L154.037 342.603C154.037 342.771 154.062 343.156 154.162 343.357C154.263 343.557 154.706 343.691 154.916 343.733V344.612C154.916 344.988 155.041 345.616 155.041 345.742C155.041 345.867 154.539 346.244 154.665 346.495C154.79 346.746 154.539 347.499 154.539 347.625C154.539 347.75 156.045 349.884 156.296 350.01C156.548 350.135 157.301 350.386 157.552 350.512C157.803 350.638 159.184 354.153 159.56 354.655C159.937 355.157 161.569 356.287 162.197 356.287C162.824 356.287 162.699 356.036 162.699 355.784C162.699 355.533 161.82 354.655 161.946 354.655C162.046 354.655 162.49 354.487 162.699 354.404C162.615 354.194 162.423 353.751 162.322 353.65C162.197 353.525 162.573 352.521 162.699 352.269C162.824 352.018 163.703 351.265 163.954 351.014C164.155 350.813 164.205 350.01 164.205 349.633C164.414 349.257 164.858 348.403 164.958 348.001C165.084 347.499 164.707 347.123 164.582 346.871C164.456 346.62 163.326 346.62 163.075 346.62C162.874 346.62 161.736 346.035 161.192 345.742C161.025 345.532 160.59 345.064 160.188 344.863C159.786 344.662 159.519 344.696 159.435 344.737C159.309 344.612 159.008 344.336 158.807 344.235C158.556 344.11 157.301 343.859 157.301 343.608C157.301 343.407 156.045 342.938 155.418 342.729C155.334 342.478 155.167 341.9 155.167 341.599C155.167 341.298 154.748 341.055 154.539 340.971C154.288 340.888 153.761 340.67 153.66 340.469C153.535 340.218 153.786 339.339 154.037 338.712C154.238 338.21 154.874 338.168 155.167 338.21C155.208 338.628 155.317 339.49 155.418 339.59C155.543 339.716 156.045 339.465 156.296 339.088C156.497 338.787 156.38 337.959 156.296 337.582C156.673 337.331 157.451 336.778 157.552 336.578C157.677 336.327 157.803 335.95 157.928 335.573C158.054 335.197 158.431 335.573 159.058 335.573C159.686 335.573 158.933 334.695 159.184 334.695C159.435 334.695 159.811 334.695 160.063 334.569C160.314 334.444 160.941 334.067 161.192 333.941C161.443 333.816 161.192 333.69 160.941 333.439C160.69 333.188 161.694 332.937 161.946 332.812C162.197 332.686 162.322 332.309 162.322 331.807C162.322 331.406 162.071 330.719 161.946 330.426H161.443C161.234 330.385 160.74 330.351 160.439 330.552Z" fill="#93C9FE" stroke="#93C9FE" stroke-width="0.327224"/>
<circle cx="166.716" cy="342.603" r="14.7864" stroke="#93C9FE" stroke-width="1.3089"/>
<mask id="path-60-inside-9" fill="white">
<path fill-rule="evenodd" clip-rule="evenodd" d="M28.2884 341.875C31.1492 338.714 31.1492 333.589 28.2884 330.428C25.4276 327.267 20.7894 327.267 17.9286 330.428L15.2169 333.424L12.5054 330.428C9.64463 327.267 5.00638 327.267 2.14559 330.428C-0.715197 333.589 -0.715197 338.714 2.14559 341.875L4.85709 344.871L4.84467 344.885L15.2045 356.332L15.2169 356.318L15.2295 356.332L25.5893 344.885L25.5768 344.871L28.2884 341.875Z"/>
</mask>
<path d="M28.2884 330.428L29.4241 329.4L29.4241 329.4L28.2884 330.428ZM28.2884 341.875L29.4241 342.903L29.4241 342.903L28.2884 341.875ZM17.9286 330.428L16.7928 329.4L17.9286 330.428ZM15.2169 333.424L14.0812 334.452L15.2169 335.707L16.3527 334.452L15.2169 333.424ZM12.5054 330.428L11.3697 331.456L11.3697 331.456L12.5054 330.428ZM2.14559 330.428L1.00985 329.4L1.00985 329.4L2.14559 330.428ZM2.14559 341.875L3.28133 340.847L3.28133 340.847L2.14559 341.875ZM4.85709 344.871L5.99282 345.899L6.92312 344.871L5.99284 343.843L4.85709 344.871ZM4.84467 344.885L3.70894 343.857L2.77864 344.885L3.70893 345.913L4.84467 344.885ZM15.2045 356.332L14.0688 357.359L15.2045 358.614L16.3403 357.359L15.2045 356.332ZM15.2169 356.318L16.3527 355.29L15.2169 354.035L14.0811 355.29L15.2169 356.318ZM15.2295 356.332L14.0937 357.36L15.2295 358.615L16.3652 357.36L15.2295 356.332ZM25.5893 344.885L26.7251 345.913L27.6553 344.885L26.725 343.857L25.5893 344.885ZM25.5768 344.871L24.441 343.843L23.5107 344.871L24.441 345.899L25.5768 344.871ZM27.1527 331.456C29.4853 334.033 29.4853 338.269 27.1527 340.847L29.4241 342.903C32.813 339.158 32.813 333.144 29.4241 329.4L27.1527 331.456ZM19.0643 331.456C21.317 328.967 24.9 328.967 27.1527 331.456L29.4241 329.4C25.9553 325.567 20.2617 325.567 16.7928 329.4L19.0643 331.456ZM16.3527 334.452L19.0643 331.456L16.7928 329.4L14.0812 332.396L16.3527 334.452ZM11.3697 331.456L14.0812 334.452L16.3527 332.396L13.6412 329.4L11.3697 331.456ZM3.28133 331.456C5.53402 328.967 9.11699 328.967 11.3697 331.456L13.6412 329.4C10.1723 325.567 4.47873 325.567 1.00985 329.4L3.28133 331.456ZM3.28133 340.847C0.948643 338.27 0.948643 334.033 3.28133 331.456L1.00985 329.4C-2.37904 333.145 -2.37904 339.158 1.00985 342.903L3.28133 340.847ZM5.99284 343.843L3.28133 340.847L1.00985 342.903L3.72135 345.899L5.99284 343.843ZM5.98039 345.913L5.99282 345.899L3.72137 343.843L3.70894 343.857L5.98039 345.913ZM16.3402 355.304L5.98041 343.857L3.70893 345.913L14.0688 357.359L16.3402 355.304ZM14.0811 355.29L14.0687 355.304L16.3403 357.359L16.3527 357.346L14.0811 355.29ZM16.3652 355.304L16.3527 355.29L14.0812 357.346L14.0937 357.36L16.3652 355.304ZM24.4536 343.857L14.0937 355.304L16.3652 357.36L26.7251 345.913L24.4536 343.857ZM24.441 345.899L24.4536 345.913L26.725 343.857L26.7125 343.843L24.441 345.899ZM27.1527 340.847L24.441 343.843L26.7125 345.899L29.4241 342.903L27.1527 340.847Z" fill="#93C9FE" mask="url(#path-60-inside-9)"/>
<path d="M16.1122 333.876L6.26587 344.617" stroke="#93C9FE" stroke-width="1.53104"/>
<rect x="302.998" y="328.057" width="5.37071" height="5.37071" fill="#93C9FE"/>
<rect x="326.271" y="328.057" width="5.37071" height="5.37071" fill="#93C9FE"/>
<rect x="326.271" y="351.778" width="5.37071" height="5.37071" fill="#93C9FE"/>
<rect x="302.998" y="351.778" width="5.37071" height="5.37071" fill="#93C9FE"/>
<rect x="306.518" y="331.577" width="22.0513" height="22.0513" stroke="#93C9FE" stroke-width="1.66932"/>
<path d="M313.417 338.349H316.148V347.19H317.822V338.349H320.539V336.984H313.417V338.349Z" fill="#93C9FE"/>
<mask id="path-69-inside-10" fill="white">
<path fill-rule="evenodd" clip-rule="evenodd" d="M267.733 585.132C270.594 581.971 270.594 576.846 267.733 573.685C264.872 570.524 260.234 570.524 257.373 573.685L254.661 576.682L251.95 573.686C249.089 570.525 244.451 570.525 241.59 573.686C238.729 576.847 238.729 581.972 241.59 585.132L244.301 588.129L244.289 588.142L254.649 599.589L254.661 599.575L254.674 599.589L265.034 588.142L265.021 588.129L267.733 585.132Z"/>
</mask>
<path d="M267.733 573.685L268.869 572.658L268.869 572.658L267.733 573.685ZM267.733 585.132L266.597 584.104L266.597 584.104L267.733 585.132ZM257.373 573.685L258.509 574.713L258.509 574.713L257.373 573.685ZM254.661 576.682L253.526 577.71L254.661 578.964L255.797 577.71L254.661 576.682ZM251.95 573.686L253.086 572.658L253.086 572.658L251.95 573.686ZM241.59 573.686L240.454 572.658L241.59 573.686ZM241.59 585.132L240.454 586.16L240.454 586.16L241.59 585.132ZM244.301 588.129L245.437 589.156L246.367 588.129L245.437 587.101L244.301 588.129ZM244.289 588.142L243.153 587.114L242.223 588.142L243.153 589.17L244.289 588.142ZM254.649 599.589L253.513 600.617L254.649 601.872L255.785 600.617L254.649 599.589ZM254.661 599.575L255.797 598.548L254.661 597.293L253.526 598.548L254.661 599.575ZM254.674 599.589L253.538 600.617L254.674 601.872L255.81 600.617L254.674 599.589ZM265.034 588.142L266.169 589.17L267.1 588.142L266.169 587.115L265.034 588.142ZM265.021 588.129L263.885 587.101L262.955 588.129L263.885 589.156L265.021 588.129ZM266.597 574.713C268.93 577.291 268.93 581.527 266.597 584.104L268.869 586.16C272.257 582.416 272.257 576.402 268.869 572.658L266.597 574.713ZM258.509 574.713C260.761 572.224 264.344 572.224 266.597 574.713L268.869 572.658C265.4 568.825 259.706 568.825 256.237 572.658L258.509 574.713ZM255.797 577.71L258.509 574.713L256.237 572.658L253.526 575.654L255.797 577.71ZM250.814 574.713L253.526 577.71L255.797 575.654L253.086 572.658L250.814 574.713ZM242.726 574.713C244.978 572.224 248.561 572.224 250.814 574.713L253.086 572.658C249.617 568.825 243.923 568.825 240.454 572.658L242.726 574.713ZM242.726 584.105C240.393 581.527 240.393 577.291 242.726 574.713L240.454 572.658C237.065 576.402 237.065 582.416 240.454 586.16L242.726 584.105ZM245.437 587.101L242.726 584.105L240.454 586.16L243.166 589.156L245.437 587.101ZM245.425 589.17L245.437 589.156L243.166 587.101L243.153 587.114L245.425 589.17ZM255.785 598.561L245.425 587.114L243.153 589.17L253.513 600.617L255.785 598.561ZM253.526 598.548L253.513 598.561L255.785 600.617L255.797 600.603L253.526 598.548ZM255.81 598.561L255.797 598.548L253.526 600.603L253.538 600.617L255.81 598.561ZM263.898 587.115L253.538 598.561L255.81 600.617L266.169 589.17L263.898 587.115ZM263.885 589.156L263.898 589.17L266.169 587.115L266.157 587.101L263.885 589.156ZM266.597 584.104L263.885 587.101L266.157 589.156L268.869 586.16L266.597 584.104Z" fill="#93C9FE" mask="url(#path-69-inside-10)"/>
<path d="M255.557 577.133L245.71 587.874" stroke="#93C9FE" stroke-width="1.53104"/>
<rect x="88.2433" y="569.599" width="18.2017" height="32.5236" rx="1.56498" stroke="#93C9FE" stroke-width="1.04332"/>
<rect x="94.8827" y="571.762" width="4.92315" height="0.895119" rx="0.447559" fill="#93C9FE"/>
<rect x="96.2253" y="597.273" width="2.68536" height="2.68536" rx="1.34268" fill="#93C9FE"/>
</svg>
