<svg width="1440" height="315" viewBox="0 0 1440 315" fill="none" xmlns="http://www.w3.org/2000/svg">
<path fill-rule="evenodd" clip-rule="evenodd" d="M-257.57 47.9122L-233.184 32.172C-210.232 16.4317 -161.461 -15.0487 -114.123 8.56163C-66.7859 32.172 -18.0141 110.873 29.3232 150.224C76.6606 189.574 125.432 189.574 172.77 165.964C220.107 142.354 268.879 95.133 316.216 87.2628C363.554 79.3927 412.326 110.873 459.663 142.354C507 173.834 555.772 205.315 603.109 228.925C650.447 252.535 699.219 268.276 746.556 268.276C793.893 268.276 842.665 252.535 890.002 260.406C937.34 268.276 986.112 299.756 1033.45 307.626C1080.79 315.496 1129.56 299.756 1176.9 268.276C1224.23 236.795 1273 189.574 1320.34 181.704C1367.68 173.834 1416.45 205.315 1439.4 221.055L1463.79 236.795V378.457H1439.4C1416.45 378.457 1367.68 378.457 1320.34 378.457C1273 378.457 1224.23 378.457 1176.9 378.457C1129.56 378.457 1080.79 378.457 1033.45 378.457C986.112 378.457 937.34 378.457 890.002 378.457C842.665 378.457 793.893 378.457 746.556 378.457C699.219 378.457 650.447 378.457 603.109 378.457C555.772 378.457 507 378.457 459.663 378.457C412.326 378.457 363.554 378.457 316.216 378.457C268.879 378.457 220.107 378.457 172.77 378.457C125.432 378.457 76.6606 378.457 29.3232 378.457C-18.0141 378.457 -66.7859 378.457 -114.123 378.457C-161.461 378.457 -210.232 378.457 -233.184 378.457H-257.57V47.9122Z" fill="#3E9CF3"/>
</svg>
