<svg width="1440" height="441" viewBox="0 0 1440 441" fill="none" xmlns="http://www.w3.org/2000/svg">
<path fill-rule="evenodd" clip-rule="evenodd" d="M-642 293.952H-617.49C-592.98 293.952 -546.003 293.952 -496.982 293.952C-450.005 293.952 -400.985 293.952 -354.008 293.952C-304.987 293.952 -258.01 293.952 -208.99 243.027C-162.012 192.102 -112.992 90.2522 -66.015 39.3272C-16.995 -11.5979 29.9825 -11.5979 79.0025 30.8397C125.98 73.2772 175 158.152 224.02 200.59C270.998 243.027 320.018 243.027 366.995 226.052C416.015 209.077 462.993 175.127 512.013 192.102C558.99 209.077 608.01 276.977 654.988 310.927C704.008 344.877 750.985 344.877 800.005 336.39C846.983 327.902 896.002 310.927 942.98 310.927C992 310.927 1041.02 327.902 1088 336.39C1137.02 344.877 1183.99 344.877 1233.02 327.902C1279.99 310.927 1329.01 276.977 1375.99 285.465C1425.01 293.952 1471.99 344.877 1521.01 319.415C1567.99 293.952 1617 192.102 1663.98 166.64C1713 141.177 1759.98 192.102 1784.49 217.565L1809 243.027V497.653H1784.49C1759.98 497.653 1713 497.653 1663.98 497.653C1617 497.653 1567.99 497.653 1521.01 497.653C1471.99 497.653 1425.01 497.653 1375.99 497.653C1329.01 497.653 1279.99 497.653 1233.02 497.653C1183.99 497.653 1137.02 497.653 1088 497.653C1041.02 497.653 992 497.653 942.98 497.653C896.002 497.653 846.983 497.653 800.005 497.653C750.985 497.653 704.008 497.653 654.988 497.653C608.01 497.653 558.99 497.653 512.013 497.653C462.993 497.653 416.015 497.653 366.995 497.653C320.018 497.653 270.998 497.653 224.02 497.653C175 497.653 125.98 497.653 79.0025 497.653C29.9825 497.653 -16.995 497.653 -66.015 497.653C-112.992 497.653 -162.012 497.653 -208.99 497.653C-258.01 497.653 -304.987 497.653 -354.008 497.653C-400.985 497.653 -450.005 497.653 -496.982 497.653C-546.003 497.653 -592.98 497.653 -617.49 497.653H-642V293.952Z" fill="#1586EE"/>
</svg>
