<svg width="162" height="122" viewBox="0 0 162 122" fill="none" xmlns="http://www.w3.org/2000/svg">
<path d="M125.476 59.1416C122.422 64.7825 115.147 70.6788 111.891 72.9219L107.968 72.1865C110.546 69.0083 118.78 58.6581 116.997 57.3823C114.768 55.7877 109.96 63.6047 105.512 66.8314C101.065 70.0581 93.3954 75.9917 88.6897 80.8329C83.9841 85.6741 85.6397 96.401 86.2436 102.186C87.0819 110.215 86.4564 100.945 87.4318 110.288L106.985 108.247C106.392 102.573 102.575 96.7719 106.281 94.2461C108.715 92.5873 112.274 84.7769 116.997 82.4214C121.719 80.0659 125.624 71.1664 128.99 66.9405C132.355 62.7147 136.712 50.9899 138.398 46.9118C140.085 42.8337 139.026 40.3899 136.645 41.0471C134.263 41.7043 129.293 52.0904 125.476 59.1416Z" fill="#B28B67" stroke="#B28B67" stroke-width="3"/>
<path d="M36.9917 59.1416C40.0453 64.7825 47.3202 70.6788 50.576 72.9219L54.4992 72.1865C51.9218 69.0083 43.6878 58.6581 45.4709 57.3823C47.6996 55.7877 52.5073 63.6047 56.955 66.8314C61.4028 70.0581 69.072 75.9917 73.7777 80.8329C78.4833 85.6741 76.8277 96.401 76.2238 102.186C75.3855 110.215 76.011 100.945 75.0356 110.288L55.4825 108.247C56.0749 102.573 59.8927 96.7719 56.1863 94.2461C53.7521 92.5873 50.1933 84.7769 45.4709 82.4214C40.7484 80.0659 36.8431 71.1664 33.4775 66.9405C30.1119 62.7147 25.7553 50.9899 24.069 46.9118C22.3827 42.8337 23.441 40.3899 25.8226 41.0471C28.2042 41.7043 33.1747 52.0904 36.9917 59.1416Z" fill="#B28B67" stroke="#B28B67" stroke-width="3"/>
<path d="M78.8064 66.8619C82.46 50.1051 79.0845 37.1567 76.7184 28.0166" stroke="#7BDC00" stroke-width="3.38476"/>
<path d="M94.6041 14.6627C86.5383 12.728 79.6037 21.4688 77.1447 26.081C79.5786 28.2389 86.0272 32.9782 92.3504 34.6719C98.6735 36.3657 110.275 31.0023 115.286 28.1089C111.753 24.4329 102.67 16.5973 94.6041 14.6627Z" stroke="#7BDC00" stroke-width="2.976"/>
<path d="M66.22 10.724C74.8073 17.5026 75.4507 22.724 76.5882 28.411C72.2919 26.4486 60.6662 29.3242 53.7424 24.0195C46.8186 18.7148 43.2902 8.53435 42.3915 4.1072C49.2169 6.92723 57.6327 3.94541 66.22 10.724Z" stroke="#7BDC00" stroke-width="2.976"/>
<path d="M78.8064 66.8619C82.46 50.1051 79.0845 37.1567 76.7184 28.0166" stroke="#7BDC00" stroke-width="3.38476"/>
<path d="M94.6041 14.6627C86.5383 12.728 79.6037 21.4688 77.1447 26.081C79.5786 28.2389 86.0272 32.9782 92.3504 34.6719C98.6735 36.3657 110.275 31.0023 115.286 28.1089C111.753 24.4329 102.67 16.5973 94.6041 14.6627Z" fill="#7BDC00" stroke="#7BDC00" stroke-width="2.976"/>
<path d="M66.22 10.724C74.8073 17.5026 75.4507 22.724 76.5882 28.411C72.2919 26.4486 60.6662 29.3242 53.7424 24.0195C46.8186 18.7148 43.2902 8.53435 42.3915 4.1072C49.2169 6.92723 57.6327 3.94541 66.22 10.724Z" fill="#7BDC00" stroke="#7BDC00" stroke-width="2.976"/>
<path d="M78.4979 25.7408C80.715 24.539 86.0993 22.332 89.8999 23.1187C93.7006 23.9053 102.463 26.0686 106.369 27.0519" stroke="#7BDC00" stroke-width="2" stroke-linecap="round"/>
<path d="M75.7052 27.8231C75.9167 25.3192 68.8912 20.7879 64.8882 19.2387C60.8854 17.6896 54.3744 14.6346 51.4462 12.2959" stroke="#7BDC00" stroke-width="2" stroke-linecap="round"/>
<path d="M69.4807 21.7236C68.661 21.9969 66.6936 22.5434 65.382 22.5434" stroke="#7BDC00" stroke-linecap="round"/>
<path d="M62.9226 18.8545C61.611 19.1277 58.4632 19.6742 56.3646 19.6742" stroke="#7BDC00" stroke-linecap="round"/>
<path d="M62.7501 18.4225C61.6068 16.7354 61.6068 14.2761 59.6437 12.589" stroke="#7BDC00" stroke-linecap="round"/>
<path d="M62.7501 18.4225C61.6068 16.7354 61.6068 14.2761 59.6437 12.589" stroke="#7BDC00" stroke-linecap="round"/>
<path d="M91.2041 18.4446C90.007 20.094 87.3296 20.5212 86.4115 22.9414" stroke="#7BDC00" stroke-linecap="round"/>
<path d="M98.0443 21.8902C96.5325 22.5429 95.3028 23.3627 93.9276 23.72" stroke="#7BDC00" stroke-linecap="round"/>
<path d="M97.3986 27.2339C96.195 26.1099 95.3028 25.4124 94.0732 24.1945" stroke="#7BDC00" stroke-linecap="round"/>
<path d="M68.4888 21.1966C67.5933 20.1582 67.4313 18.8543 66.2016 17.5074" stroke="#7BDC00" stroke-linecap="round"/>
<path d="M86.6954 23.3625C87.7437 24.2464 88.9573 26.7353 90.3843 27.8711" stroke="#7BDC00" stroke-linecap="round"/>
</svg>
