<svg width="197" height="151" viewBox="0 0 197 151" fill="none" xmlns="http://www.w3.org/2000/svg">
<path d="M152.406 75.1459C148.681 82.0272 139.806 89.22 135.835 91.9563L131.049 91.0593C134.193 87.1822 144.237 74.5561 142.062 72.9999C139.343 71.0546 133.479 80.5904 128.053 84.5266C122.627 88.4628 113.272 95.7012 107.531 101.607C101.791 107.513 103.811 120.598 104.547 127.655C105.57 137.45 104.807 126.141 105.997 137.539L129.849 135.049C129.127 128.127 124.469 121.05 128.991 117.969C131.96 115.946 136.301 106.418 142.062 103.545C147.823 100.671 152.587 89.8148 156.693 84.6598C160.798 79.5047 166.113 65.2018 168.17 60.227C170.227 55.2522 168.936 52.2711 166.031 53.0728C163.126 53.8746 157.062 66.5443 152.406 75.1459Z" fill="#93C9FE" stroke="#93C9FE" stroke-width="3"/>
<path d="M44.4658 75.1459C48.1908 82.0272 57.0654 89.22 61.0371 91.9563L65.8229 91.0593C62.6788 87.1822 52.6343 74.5561 54.8094 72.9999C57.5283 71.0546 63.393 80.5904 68.8187 84.5266C74.2445 88.4628 83.6001 95.7012 89.3404 101.607C95.0808 107.513 93.061 120.598 92.3244 127.655C91.3018 137.45 92.0648 126.141 90.8749 137.539L67.0225 135.049C67.7451 128.127 72.4024 121.05 67.881 117.969C64.9115 115.946 60.5703 106.418 54.8094 103.545C49.0485 100.671 44.2846 89.8148 40.179 84.6598C36.0733 79.5047 30.7588 65.2018 28.7017 60.227C26.6446 55.2522 27.9356 52.2711 30.8408 53.0728C33.7461 53.8746 39.8096 66.5443 44.4658 75.1459Z" fill="#93C9FE" stroke="#93C9FE" stroke-width="3"/>
<path d="M95.4749 84.5634C99.9319 64.1221 95.8141 48.3266 92.9278 37.1768" stroke="#8FD832" stroke-width="3.38476"/>
<path d="M114.746 20.8862C104.907 18.5262 96.4476 29.1889 93.4479 34.8152C96.4169 37.4476 104.283 43.229 111.997 45.2951C119.71 47.3613 133.864 40.8186 139.976 37.289C135.666 32.8047 124.586 23.2462 114.746 20.8862Z" stroke="#8FD832" stroke-width="2.976"/>
<path d="M80.121 16.0821C90.5965 24.3512 91.3814 30.7207 92.7691 37.6581C87.5281 35.2643 73.3461 38.7722 64.8999 32.3011C56.4537 25.83 52.1494 13.411 51.0531 8.01037C59.3793 11.4505 69.6455 7.81301 80.121 16.0821Z" stroke="#8FD832" stroke-width="2.976"/>
<path d="M95.4749 84.5634C99.9319 64.1221 95.8141 48.3266 92.9278 37.1768" stroke="#8FD832" stroke-width="3.38476"/>
<path d="M114.746 20.8862C104.907 18.5262 96.4476 29.1889 93.4479 34.8152C96.4169 37.4476 104.283 43.229 111.997 45.2951C119.71 47.3613 133.864 40.8186 139.976 37.289C135.666 32.8047 124.586 23.2462 114.746 20.8862Z" fill="white" stroke="#8FD832" stroke-width="2.976"/>
<path d="M80.121 16.0821C90.5965 24.3512 91.3814 30.7207 92.7691 37.6581C87.5281 35.2643 73.3461 38.7722 64.8999 32.3011C56.4537 25.83 52.1494 13.411 51.0531 8.01037C59.3793 11.4505 69.6455 7.81301 80.121 16.0821Z" fill="white" stroke="#8FD832" stroke-width="2.976"/>
<path d="M95.0986 34.4007C97.8032 32.9346 104.371 30.2424 109.008 31.202C113.644 32.1616 124.333 34.8005 129.099 36" stroke="#8FD832" stroke-width="2" stroke-linecap="round"/>
<path d="M91.6917 36.9411C91.9498 33.8867 83.3794 28.359 78.4963 26.4693C73.6133 24.5795 65.6707 20.8527 62.0986 17.9998" stroke="#8FD832" stroke-width="2" stroke-linecap="round"/>
<path d="M84.0986 29.5C83.0986 29.8333 80.6986 30.5 79.0986 30.5" stroke="#8FD832" stroke-linecap="round"/>
<path d="M76.0986 26C74.4986 26.3333 70.6586 27 68.0986 27" stroke="#8FD832" stroke-linecap="round"/>
<path d="M75.8881 25.4731C74.4934 23.415 74.4934 20.415 72.0986 18.3569" stroke="#8FD832" stroke-linecap="round"/>
<path d="M75.8881 25.4731C74.4934 23.415 74.4934 20.415 72.0986 18.3569" stroke="#8FD832" stroke-linecap="round"/>
<path d="M110.599 25.5C109.138 27.512 105.872 28.0333 104.752 30.9856" stroke="#8FD832" stroke-linecap="round"/>
<path d="M118.943 29.7038C117.099 30.5001 115.599 31.5001 113.921 31.936" stroke="#8FD832" stroke-linecap="round"/>
<path d="M118.155 36.222C116.687 34.8509 115.599 34 114.099 32.5143" stroke="#8FD832" stroke-linecap="round"/>
<path d="M82.8887 28.8573C81.7963 27.5906 81.5986 26 80.0986 24.3569" stroke="#8FD832" stroke-linecap="round"/>
<path d="M105.099 31.5002C106.377 32.5784 107.858 35.6146 109.599 37.0001" stroke="#8FD832" stroke-linecap="round"/>
</svg>
