<svg width="187" height="206" viewBox="0 0 187 206" fill="none" xmlns="http://www.w3.org/2000/svg">
<path opacity="0.5" d="M159.4 13.6595C171.973 26.5399 175.189 48.3488 179.868 68.4012C184.546 88.3073 190.833 106.603 183.962 118.459C177.236 130.315 157.207 135.584 141.709 150.953C126.065 166.322 114.808 191.497 96.5325 201.157C78.2572 210.964 52.9641 204.963 32.3496 191.35C11.8812 177.592 -4.05483 156.076 0.91605 136.17C5.74073 116.117 31.3262 97.6749 44.7768 81.2816C58.3736 65.0348 59.9819 50.837 67.7306 36.493C75.4793 22.1489 89.5148 7.65843 107.351 2.38917C125.334 -3.02645 146.972 0.779123 159.4 13.6595Z" fill="#DFDFDF"/>
</svg>
