<svg width="705" height="938" viewBox="0 0 705 938" fill="none" xmlns="http://www.w3.org/2000/svg">
<path d="M487.5 217.5H447V118" stroke="#C5CFD6" stroke-width="3" stroke-linecap="round"/>
<path d="M573 296L613 296L613 443" stroke="#C5CFD6" stroke-width="3" stroke-linecap="round"/>
<path d="M398.681 1.5H545.45C546.655 1.5 547.631 2.47625 547.631 3.67926V155.449C547.631 156.652 546.655 157.628 545.45 157.628H398.681C397.476 157.628 396.5 156.652 396.5 155.449V3.67926C396.5 2.47625 397.476 1.5 398.681 1.5Z" fill="#F2F2F2" stroke="#C5CFD6" stroke-width="3"/>
<path d="M538.088 19.7759H513.243C511.211 19.7759 509.563 21.4231 509.563 23.4551V53.3491C509.563 55.3811 511.211 57.0284 513.243 57.0284H538.088C540.121 57.0284 541.769 55.3811 541.769 53.3491V23.4551C541.769 21.4231 540.121 19.7759 538.088 19.7759Z" fill="white"/>
<path d="M525.666 41.3919C529.732 41.3919 533.028 38.0973 533.028 34.0333C533.028 29.9693 529.732 26.6748 525.666 26.6748C521.6 26.6748 518.305 29.9693 518.305 34.0333C518.305 38.0973 521.6 41.3919 525.666 41.3919Z" fill="#DDE3E9"/>
<path d="M535.788 43.2314H515.544C514.782 43.2314 514.164 43.8492 514.164 44.6112C514.164 45.3732 514.782 45.9909 515.544 45.9909H535.788C536.55 45.9909 537.168 45.3732 537.168 44.6112C537.168 43.8492 536.55 43.2314 535.788 43.2314Z" fill="#DDE3E9"/>
<path d="M532.107 47.8301H519.225C518.463 47.8301 517.845 48.4478 517.845 49.2098C517.845 49.9718 518.463 50.5895 519.225 50.5895H532.107C532.87 50.5895 533.488 49.9718 533.488 49.2098C533.488 48.4478 532.87 47.8301 532.107 47.8301Z" fill="#DDE3E9"/>
<path fill-rule="evenodd" clip-rule="evenodd" d="M398.681 0H545.45C547.483 0 549.131 1.64726 549.131 3.67926V12.4175H395V3.67926C395 1.64726 396.648 0 398.681 0Z" fill="#C5CFD6"/>
<path d="M400.981 8.27936C401.998 8.27936 402.821 7.45573 402.821 6.43973C402.821 5.42373 401.998 4.6001 400.981 4.6001C399.965 4.6001 399.141 5.42373 399.141 6.43973C399.141 7.45573 399.965 8.27936 400.981 8.27936Z" fill="#F2F2F2"/>
<path d="M406.502 8.27839C407.519 8.27839 408.343 7.45476 408.343 6.43875C408.343 5.42275 407.519 4.59912 406.502 4.59912C405.486 4.59912 404.662 5.42275 404.662 6.43875C404.662 7.45476 405.486 8.27839 406.502 8.27839Z" fill="#F2F2F2"/>
<path d="M412.024 8.27839C413.04 8.27839 413.864 7.45476 413.864 6.43875C413.864 5.42275 413.04 4.59912 412.024 4.59912C411.007 4.59912 410.183 5.42275 410.183 6.43875C410.183 7.45476 411.007 8.27839 412.024 8.27839Z" fill="#F2F2F2"/>
<path d="M538.088 60.708H513.243C511.211 60.708 509.563 62.3553 509.563 64.3873V146.251C509.563 148.283 511.211 149.93 513.243 149.93H538.088C540.121 149.93 541.769 148.283 541.769 146.251V64.3873C541.769 62.3553 540.121 60.708 538.088 60.708Z" fill="white"/>
<path d="M531.647 68.9863H519.685C518.668 68.9863 517.844 69.81 517.844 70.826V79.1043C517.844 80.1203 518.668 80.9439 519.685 80.9439H531.647C532.664 80.9439 533.488 80.1203 533.488 79.1043V70.826C533.488 69.81 532.664 68.9863 531.647 68.9863Z" fill="#DDE3E9"/>
<path d="M531.647 84.623H519.685C518.668 84.623 517.844 85.4467 517.844 86.4627V94.2811C517.844 95.2971 518.668 96.1207 519.685 96.1207H531.647C532.664 96.1207 533.488 95.2971 533.488 94.2811V86.4627C533.488 85.4467 532.664 84.623 531.647 84.623Z" fill="#AFB9C5"/>
<path d="M531.647 99.8003H519.685C518.668 99.8003 517.844 100.624 517.844 101.64V109.458C517.844 110.474 518.668 111.298 519.685 111.298H531.647C532.664 111.298 533.488 110.474 533.488 109.458V101.64C533.488 100.624 532.664 99.8003 531.647 99.8003Z" fill="#DDE3E9"/>
<path d="M531.647 130.154H519.685C518.668 130.154 517.844 130.977 517.844 131.993V139.812C517.844 140.828 518.668 141.651 519.685 141.651H531.647C532.664 141.651 533.488 140.828 533.488 139.812V131.993C533.488 130.977 532.664 130.154 531.647 130.154Z" fill="#DDE3E9"/>
<path d="M531.647 114.977H519.685C518.668 114.977 517.844 115.801 517.844 116.817V124.635C517.844 125.651 518.668 126.475 519.685 126.475H531.647C532.664 126.475 533.488 125.651 533.488 124.635V116.817C533.488 115.801 532.664 114.977 531.647 114.977Z" fill="#C5CFD6"/>
<path d="M504.042 20.2358H404.202C403.185 20.2358 402.361 21.0595 402.361 22.0755V40.0119C402.361 41.0279 403.185 41.8515 404.202 41.8515H504.042C505.058 41.8515 505.882 41.0279 505.882 40.0119V22.0755C505.882 21.0595 505.058 20.2358 504.042 20.2358Z" fill="white"/>
<path d="M481.957 26.7207H407.882C407.12 26.7207 406.502 27.3384 406.502 28.1004V28.5833C406.502 29.3453 407.12 29.963 407.882 29.963H481.957C482.72 29.963 483.338 29.3453 483.338 28.5833V28.1004C483.338 27.3384 482.72 26.7207 481.957 26.7207Z" fill="#DDE3E9"/>
<path d="M456.696 32.124H407.882C407.12 32.124 406.502 32.7417 406.502 33.5038V33.9867C406.502 34.7487 407.12 35.3664 407.882 35.3664H456.696C457.459 35.3664 458.077 34.7487 458.077 33.9867V33.5038C458.077 32.7417 457.459 32.124 456.696 32.124Z" fill="#DDE3E9"/>
<path d="M494.819 34.2629C496.597 34.2629 498.039 32.8216 498.039 31.0436C498.039 29.2656 496.597 27.8242 494.819 27.8242C493.04 27.8242 491.598 29.2656 491.598 31.0436C491.598 32.8216 493.04 34.2629 494.819 34.2629Z" fill="#DDE3E9"/>
<path d="M494.819 32.423C495.581 32.423 496.199 31.8053 496.199 31.0433C496.199 30.2813 495.581 29.6636 494.819 29.6636C494.056 29.6636 493.438 30.2813 493.438 31.0433C493.438 31.8053 494.056 32.423 494.819 32.423Z" fill="#F2F2F2"/>
<path d="M504.042 45.5308H404.202C403.185 45.5308 402.361 46.3544 402.361 47.3704V61.6275C402.361 62.6435 403.185 63.4672 404.202 63.4672H504.042C505.058 63.4672 505.882 62.6435 505.882 61.6275V47.3704C505.882 46.3544 505.058 45.5308 504.042 45.5308Z" fill="white"/>
<path d="M481.992 50.9121H407.848C407.105 50.9121 406.502 51.5144 406.502 52.2573C406.502 53.0003 407.105 53.6026 407.848 53.6026H481.992C482.735 53.6026 483.338 53.0003 483.338 52.2573C483.338 51.5144 482.735 50.9121 481.992 50.9121Z" fill="#DDE3E9"/>
<path d="M456.731 55.396H407.848C407.105 55.396 406.502 55.9983 406.502 56.7412C406.502 57.4842 407.105 58.0864 407.848 58.0864H456.731C457.474 58.0864 458.077 57.4842 458.077 56.7412C458.077 55.9983 457.474 55.396 456.731 55.396Z" fill="#DDE3E9"/>
<path d="M494.819 57.718C496.597 57.718 498.039 56.2767 498.039 54.4987C498.039 52.7207 496.597 51.2793 494.819 51.2793C493.04 51.2793 491.598 52.7207 491.598 54.4987C491.598 56.2767 493.04 57.718 494.819 57.718Z" fill="#DDE3E9"/>
<path d="M494.819 55.8786C495.581 55.8786 496.199 55.2609 496.199 54.4989C496.199 53.7369 495.581 53.1191 494.819 53.1191C494.056 53.1191 493.438 53.7369 493.438 54.4989C493.438 55.2609 494.056 55.8786 494.819 55.8786Z" fill="#F2F2F2"/>
<path d="M504.042 67.1465H404.202C403.185 67.1465 402.361 67.9701 402.361 68.9861V83.2433C402.361 84.2593 403.185 85.0829 404.202 85.0829H504.042C505.058 85.0829 505.882 84.2593 505.882 83.2433V68.9861C505.882 67.9701 505.058 67.1465 504.042 67.1465Z" fill="white"/>
<path d="M481.992 72.5273H407.848C407.105 72.5273 406.502 73.1296 406.502 73.8726C406.502 74.6155 407.105 75.2178 407.848 75.2178H481.992C482.735 75.2178 483.338 74.6155 483.338 73.8726C483.338 73.1296 482.735 72.5273 481.992 72.5273Z" fill="#DDE3E9"/>
<path d="M456.731 77.0117H407.848C407.105 77.0117 406.502 77.614 406.502 78.357C406.502 79.0999 407.105 79.7022 407.848 79.7022H456.731C457.474 79.7022 458.077 79.0999 458.077 78.357C458.077 77.614 457.474 77.0117 456.731 77.0117Z" fill="#DDE3E9"/>
<path d="M494.819 79.3337C496.597 79.3337 498.039 77.8924 498.039 76.1144C498.039 74.3364 496.597 72.895 494.819 72.895C493.04 72.895 491.598 74.3364 491.598 76.1144C491.598 77.8924 493.04 79.3337 494.819 79.3337Z" fill="#DDE3E9"/>
<path d="M494.819 77.4943C495.581 77.4943 496.199 76.8766 496.199 76.1146C496.199 75.3526 495.581 74.7349 494.819 74.7349C494.056 74.7349 493.438 75.3526 493.438 76.1146C493.438 76.8766 494.056 77.4943 494.819 77.4943Z" fill="#AFB9C5"/>
<path d="M504.042 131.993H404.202C403.185 131.993 402.361 132.817 402.361 133.833V148.09C402.361 149.106 403.185 149.929 404.202 149.929H504.042C505.058 149.929 505.882 149.106 505.882 148.09V133.833C505.882 132.817 505.058 131.993 504.042 131.993Z" fill="white"/>
<path d="M481.992 137.374H407.848C407.105 137.374 406.502 137.976 406.502 138.719C406.502 139.462 407.105 140.065 407.848 140.065H481.992C482.735 140.065 483.338 139.462 483.338 138.719C483.338 137.976 482.735 137.374 481.992 137.374Z" fill="#DDE3E9"/>
<path d="M456.731 141.858H407.848C407.105 141.858 406.502 142.46 406.502 143.203C406.502 143.946 407.105 144.548 407.848 144.548H456.731C457.474 144.548 458.077 143.946 458.077 143.203C458.077 142.46 457.474 141.858 456.731 141.858Z" fill="#DDE3E9"/>
<path d="M494.819 144.18C496.597 144.18 498.039 142.739 498.039 140.961C498.039 139.183 496.597 137.742 494.819 137.742C493.04 137.742 491.598 139.183 491.598 140.961C491.598 142.739 493.04 144.18 494.819 144.18Z" fill="#DDE3E9"/>
<path d="M494.819 142.341C495.581 142.341 496.199 141.723 496.199 140.961C496.199 140.199 495.581 139.582 494.819 139.582C494.056 139.582 493.438 140.199 493.438 140.961C493.438 141.723 494.056 142.341 494.819 142.341Z" fill="#F2F2F2"/>
<path d="M504.042 110.377H404.202C403.185 110.377 402.361 111.201 402.361 112.217V126.474C402.361 127.49 403.185 128.314 404.202 128.314H504.042C505.058 128.314 505.882 127.49 505.882 126.474V112.217C505.882 111.201 505.058 110.377 504.042 110.377Z" fill="white"/>
<path d="M481.992 115.758H407.848C407.105 115.758 406.502 116.361 406.502 117.104C406.502 117.846 407.105 118.449 407.848 118.449H481.992C482.735 118.449 483.338 117.846 483.338 117.104C483.338 116.361 482.735 115.758 481.992 115.758Z" fill="#DDE3E9"/>
<path d="M456.731 120.243H407.848C407.105 120.243 406.502 120.845 406.502 121.588C406.502 122.331 407.105 122.933 407.848 122.933H456.731C457.474 122.933 458.077 122.331 458.077 121.588C458.077 120.845 457.474 120.243 456.731 120.243Z" fill="#DDE3E9"/>
<path d="M494.819 122.565C496.597 122.565 498.039 121.124 498.039 119.346C498.039 117.568 496.597 116.126 494.819 116.126C493.04 116.126 491.598 117.568 491.598 119.346C491.598 121.124 493.04 122.565 494.819 122.565Z" fill="#DDE3E9"/>
<path d="M494.819 120.726C495.581 120.726 496.199 120.108 496.199 119.346C496.199 118.584 495.581 117.966 494.819 117.966C494.056 117.966 493.438 118.584 493.438 119.346C493.438 120.108 494.056 120.726 494.819 120.726Z" fill="#F2F2F2"/>
<path d="M504.042 88.7617H404.202C403.185 88.7617 402.361 89.5853 402.361 90.6013V104.858C402.361 105.874 403.185 106.698 404.202 106.698H504.042C505.058 106.698 505.882 105.874 505.882 104.858V90.6013C505.882 89.5853 505.058 88.7617 504.042 88.7617Z" fill="white"/>
<path d="M481.992 94.1426H407.848C407.105 94.1426 406.502 94.7449 406.502 95.4878C406.502 96.2308 407.105 96.8331 407.848 96.8331H481.992C482.735 96.8331 483.338 96.2308 483.338 95.4878C483.338 94.7449 482.735 94.1426 481.992 94.1426Z" fill="#DDE3E9"/>
<path d="M456.731 98.6265H407.848C407.105 98.6265 406.502 99.2287 406.502 99.9717C406.502 100.715 407.105 101.317 407.848 101.317H456.731C457.474 101.317 458.077 100.715 458.077 99.9717C458.077 99.2287 457.474 98.6265 456.731 98.6265Z" fill="#DDE3E9"/>
<path d="M494.819 100.949C496.597 100.949 498.039 99.5081 498.039 97.7301C498.039 95.9521 496.597 94.5107 494.819 94.5107C493.04 94.5107 491.598 95.9521 491.598 97.7301C491.598 99.5081 493.04 100.949 494.819 100.949Z" fill="#DDE3E9"/>
<path d="M494.819 99.11C495.581 99.11 496.199 98.4923 496.199 97.7303C496.199 96.9683 495.581 96.3506 494.819 96.3506C494.056 96.3506 493.438 96.9683 493.438 97.7303C493.438 98.4923 494.056 99.11 494.819 99.11Z" fill="#F2F2F2"/>
<circle cx="535" cy="262" r="72" fill="#1F6FCC"/>
<mask id="mask0" mask-type="alpha" maskUnits="userSpaceOnUse" x="463" y="190" width="144" height="144">
<circle cx="535" cy="262" r="72" fill="#1F6FCC"/>
</mask>
<g mask="url(#mask0)">
<path d="M559 205.805C561.81 205.805 566.805 204.244 568.951 203.463L580.5 199L594 215.171L601.732 227.463L607 250.5L601.732 256.732C600.171 260.634 597.049 269.258 597.049 272.537C597.049 276.634 597.634 280.732 597.049 281.902C596.58 282.839 592.561 285.415 590.61 286.585V290.098C589.829 291.073 587.566 293.844 584.756 297.122C581.244 301.219 575.39 303.561 574.219 302.39C573.049 301.219 573.049 294.195 573.049 290.098V275.463C573.049 273.707 571.293 269.61 571.293 268.439C571.293 267.502 570.512 264.146 570.122 262.585C569.732 262.195 568.132 261.18 564.854 260.244C560.756 259.073 556.658 261.415 554.317 262C551.975 262.585 551.976 260.244 548.463 260.244C544.951 260.244 541.439 253.219 540.854 252.634C540.268 252.049 539.683 247.951 539.683 246.195C539.683 244.439 538.512 241.512 538.512 240.341C538.512 239.171 540.854 236.244 542.61 234.488C544.015 233.083 545.927 231.951 546.707 231.561V227.463C546.707 225.707 545.536 225.122 543.78 223.951C542.024 222.78 545.536 219.268 545.536 216.927C545.536 215.054 547.097 214.976 547.878 215.171C547.293 214.976 546.005 214.117 545.536 212.244C545.068 210.371 547.293 210.683 548.463 211.073L551.976 205.805H559Z" fill="#162F54"/>
<path d="M505.732 205.805C504.327 206.742 494.805 199.866 494.024 198.5C488.561 202.402 479.741 208.849 476.463 211.659C472.366 215.171 456.744 226.317 454.402 228.659C452.529 230.532 458.89 246.195 458.5 252.049L469.439 257.317C470.219 257.317 471.78 257.434 471.78 257.903C471.78 258.371 472.561 259.659 472.951 260.244L475.878 262C475.878 262.781 475.995 264.576 476.463 265.512C476.932 266.449 479 267.073 479.975 267.268V271.366C479.975 273.122 480.561 276.049 480.561 276.634C480.561 277.22 478.219 278.976 478.805 280.147C479.39 281.317 478.219 284.829 478.219 285.415C478.219 286 485.244 295.951 486.414 296.537C487.585 297.122 491.097 298.293 492.268 298.878C493.439 299.464 499.878 315.854 501.634 318.195C503.39 320.537 511 325.805 513.927 325.805C516.853 325.805 516.268 324.634 516.268 323.464C516.268 322.293 512.171 318.195 512.756 318.195C513.224 318.195 515.292 317.415 516.268 317.025C515.878 316.049 514.98 313.981 514.512 313.512C513.927 312.927 515.683 308.244 516.268 307.073C516.853 305.903 520.951 302.39 522.122 301.22C523.058 300.283 523.293 296.537 523.293 294.781C524.268 293.025 526.336 289.044 526.805 287.171C527.39 284.829 525.634 283.073 525.049 281.903C524.463 280.732 519.195 280.732 518.024 280.732C517.088 280.732 511.78 278 509.244 276.634C508.463 275.659 506.434 273.473 504.561 272.537C502.688 271.6 501.439 271.756 501.049 271.951C500.463 271.366 499.058 270.078 498.122 269.61C496.951 269.025 491.097 267.854 491.097 266.683C491.097 265.747 485.244 263.561 482.317 262.586C481.927 261.415 481.146 258.722 481.146 257.317C481.146 255.912 479.195 254.781 478.219 254.39C477.049 254 474.59 252.986 474.122 252.049C473.536 250.878 474.707 246.781 475.878 243.854C476.814 241.512 479.78 241.317 481.146 241.512C481.341 243.464 481.849 247.483 482.317 247.951C482.902 248.537 485.244 247.366 486.414 245.61C487.351 244.205 486.805 240.342 486.414 238.586C488.171 237.415 491.8 234.839 492.268 233.903C492.853 232.732 493.439 230.976 494.024 229.22C494.61 227.464 496.366 229.22 499.292 229.22C502.219 229.22 498.707 225.122 499.878 225.122C501.049 225.122 502.805 225.122 503.975 224.537C505.146 223.951 508.073 222.195 509.244 221.61C510.414 221.025 509.244 220.439 508.073 219.268C506.902 218.098 511.585 216.927 512.756 216.342C513.927 215.756 514.512 214 514.512 211.659C514.512 209.786 513.341 206.586 512.756 205.22H510.414C509.439 205.025 507.136 204.868 505.732 205.805Z" fill="#162F54"/>
</g>
<path fill-rule="evenodd" clip-rule="evenodd" d="M297.401 195.179C287.923 184.049 281.507 170.408 282.579 155.122C285.668 111.082 346.949 120.77 358.87 142.998C370.79 165.226 369.374 221.609 353.968 225.582C347.824 227.166 334.735 223.285 321.414 215.253L329.776 274.43H280.405L297.401 195.179Z" fill="#B28B67"/>
<path fill-rule="evenodd" clip-rule="evenodd" d="M330.73 117.38C324.223 116.312 306.703 115.578 303.472 115.579C301.407 115.579 299.17 116.051 297.947 114.154C296.945 112.601 297.312 109.974 297.013 108.172C296.666 106.078 296.174 104.011 295.675 101.95C294.256 96.0836 292.111 90.5026 289.109 85.2628C283.476 75.4323 275.224 67.7319 264.806 63.2512C253.302 58.3037 240.284 57.1708 227.909 58.1743C214.667 59.248 202.679 63.6212 190.177 67.7367C178.262 71.6584 165.783 73.202 153.321 71.2869C140.766 69.3576 131.279 62.5499 120.689 56.0886C109.848 49.4738 97.4584 45.1475 84.6419 46.142C72.6783 47.0707 61.6518 52.0125 51.7591 58.614C42.5032 64.7906 34.866 72.2217 30.5542 82.6806C25.9157 93.9311 25.9199 106.28 33.5477 116.223C44.6039 130.635 65.1293 134.362 82.2056 133.992C92.0828 133.778 101.783 131.974 111.109 128.693C123.545 124.317 134.292 116.9 145.926 110.882C151.386 108.059 157.03 105.739 162.946 104.069C168.687 102.447 174.341 101.703 179.538 105.172C185.037 108.842 189.964 112.447 196.254 114.745C202.288 116.949 208.68 118.182 215.109 118.132C227.617 118.036 239.948 114.137 252.097 111.525C262.004 109.396 272.604 107.273 282.704 109.32C286.918 110.175 293.074 111.938 294.596 116.32C268.976 120.965 258.914 152.663 266.137 175.932C270.035 188.491 293.468 203.173 302.578 196.57C308.35 192.387 304.846 186.896 302.578 183.271C298.235 176.328 296.75 167.411 304.786 162.578C311.718 158.409 319.006 168.308 319.144 168.297C321.049 168.147 337.511 158.833 348.854 145.242C360.043 145.905 361.74 138.525 359.069 132.488C356.397 126.452 339.721 118.856 330.73 117.38Z" fill="#191847"/>
<path fill-rule="evenodd" clip-rule="evenodd" d="M268.084 445.285L420.94 700.935L535.538 917.066H560.221L368.211 445.285L268.084 445.285Z" fill="#997659"/>
<path fill-rule="evenodd" clip-rule="evenodd" d="M520.445 907.089C518.144 913.235 516.993 917.833 516.993 920.885C516.993 924.596 517.611 930.011 518.847 937.13C523.151 937.13 561.825 937.13 634.872 937.13C637.887 927.159 636.146 921.775 629.65 920.98C623.154 920.185 617.758 919.467 613.461 918.827L559.534 894.776C558.497 894.313 557.28 894.78 556.818 895.818C556.81 895.835 556.802 895.853 556.795 895.871L553.328 904.283C547.315 907.09 542.428 908.494 538.668 908.494C535.614 908.494 531.395 907.259 526.013 904.791L526.013 904.791C523.947 903.844 521.505 904.751 520.558 906.817C520.517 906.906 520.48 906.997 520.445 907.089Z" fill="#E4E4E4"/>
<path fill-rule="evenodd" clip-rule="evenodd" d="M503.711 882.457L551.312 868.052C530.457 805.68 504.896 737.042 474.628 662.138C444.361 587.234 411.855 514.95 377.111 445.285H242.667C281.295 533.408 322.247 613.479 365.521 685.497C408.795 757.516 454.858 823.169 503.711 882.457Z" fill="#BF246E"/>
<path fill-rule="evenodd" clip-rule="evenodd" d="M258.039 445.285C243.612 535.122 215.787 649.9 213.161 653.442C211.41 655.803 148.387 676.93 24.0909 716.823L29.4229 738.598C177.645 717.203 255.746 700.604 263.725 688.801C275.693 671.097 335.451 531.231 358.597 445.285H258.039Z" fill="#B28B67"/>
<path fill-rule="evenodd" clip-rule="evenodd" d="M67.7831 698L77.1747 733.07C188.036 742.797 255.964 735.769 280.957 711.984C305.95 688.2 334.435 599.301 366.411 445.285H238.211C217.952 571.403 206.625 637.109 204.232 642.403C201.839 647.698 156.356 666.23 67.7831 698Z" fill="#E03271"/>
<path fill-rule="evenodd" clip-rule="evenodd" d="M30.1815 707.752C23.731 706.552 19.0037 706.217 15.9997 706.748C12.346 707.392 7.12174 708.942 0.326798 711.396C1.07387 715.636 7.78798 753.737 20.4691 825.701C30.81 826.939 35.808 824.29 35.4631 817.752C35.1181 811.214 34.8881 805.773 34.773 801.428L49.0897 744.123C49.3652 743.02 48.6949 741.903 47.5926 741.627C47.5737 741.623 47.5548 741.618 47.5358 741.614L38.6521 739.66C34.8446 734.223 32.6145 729.653 31.9618 725.949C31.4315 722.94 31.9142 718.569 33.41 712.838L33.4101 712.838C33.9841 710.638 32.6669 708.39 30.4682 707.816C30.3734 707.791 30.2778 707.77 30.1815 707.752Z" fill="#E4E4E4"/>
<path fill-rule="evenodd" clip-rule="evenodd" d="M186.428 420.604L229.416 420.774C202.873 506.494 188.543 551.977 186.428 557.222C181.668 569.023 191.741 586.996 196.048 596.655C182.019 602.935 183.514 579.676 165.816 587.913C149.662 595.432 137.374 609.054 118.71 597.534C116.416 596.117 113.901 590.785 119.977 586.617C135.112 576.235 156.924 558.063 159.871 552.082C163.89 543.926 172.742 500.1 186.428 420.604Z" fill="#B28B67"/>
<path fill-rule="evenodd" clip-rule="evenodd" d="M456.355 446.865L514.628 389.994C531.583 382.759 545.476 374.769 556.306 366.026C558.741 363.087 561.393 357.456 549.934 359.976C538.475 362.496 526.309 364.631 524.156 360.903C522.002 357.175 528.348 351.463 524.368 346.584C521.714 343.331 512.791 353.677 497.597 377.621L437 413.362L456.355 446.865Z" fill="#B28B67"/>
<path fill-rule="evenodd" clip-rule="evenodd" d="M308.593 240.149L326.381 237.097C357.006 313.632 410.475 383.174 486.786 445.722L451.822 488.217C439.976 502.615 417.951 502.855 406.471 488.163C343.648 407.765 306.075 325.093 308.593 240.149Z" fill="#191847"/>
<path fill-rule="evenodd" clip-rule="evenodd" d="M231.051 463.78H389.448C352.751 374.518 334.402 298.69 334.402 236.298L286.622 229.176C249.071 289.594 238.466 363.98 231.051 463.78Z" fill="#DDE3E9"/>
<path fill-rule="evenodd" clip-rule="evenodd" d="M285.61 229.21C285.616 229.199 285.622 229.188 285.629 229.176L288.748 229.176C292.48 229.305 298.164 229.536 305.801 229.871L317.346 262.879C318.568 303.123 325.7 384.225 338.742 506.186H234.91C235.182 514.609 235.631 523.111 236.256 531.692H159.052C170.6 401.351 212.774 300.512 285.572 229.176L285.61 229.21V229.21Z" fill="#2F3676"/>
<path fill-rule="evenodd" clip-rule="evenodd" d="M241.768 398.406C244.723 450.914 252.122 487.111 263.964 506.997H234.936C233.666 469.219 235.943 433.022 241.768 398.406V398.406Z" fill="black" fill-opacity="0.1"/>
<path fill-rule="evenodd" clip-rule="evenodd" d="M258.021 443.201L309.221 419.389V443.201H258.021Z" fill="white" fill-opacity="0.2"/>
<rect x="533" y="431" width="172" height="145" rx="5" fill="url(#paint0_linear)"/>
<rect x="533" y="440" width="172" height="145" rx="5" fill="#EDEDED"/>
<path d="M693.526 443H668.681C666.648 443 665 444.647 665 446.679V476.573C665 478.605 666.648 480.253 668.681 480.253H693.526C695.559 480.253 697.206 478.605 697.206 476.573V446.679C697.206 444.647 695.559 443 693.526 443Z" fill="#C5CFD6"/>
<path d="M680.502 464.717C684.568 464.717 687.864 461.423 687.864 457.359C687.864 453.295 684.568 450 680.502 450C676.437 450 673.141 453.295 673.141 457.359C673.141 461.423 676.437 464.717 680.502 464.717Z" fill="white"/>
<path d="M690.624 466.557H670.38C669.618 466.557 669 467.174 669 467.936C669 468.698 669.618 469.316 670.38 469.316H690.624C691.387 469.316 692.005 468.698 692.005 467.936C692.005 467.174 691.387 466.557 690.624 466.557Z" fill="white"/>
<path d="M686.944 471.155H674.061C673.299 471.155 672.681 471.773 672.681 472.535C672.681 473.297 673.299 473.915 674.061 473.915H686.944C687.706 473.915 688.324 473.297 688.324 472.535C688.324 471.773 687.706 471.155 686.944 471.155Z" fill="white"/>
<path d="M693.526 485H668.681C666.648 485 665 486.647 665 488.679V518.573C665 520.605 666.648 522.253 668.681 522.253H693.526C695.559 522.253 697.206 520.605 697.206 518.573V488.679C697.206 486.647 695.559 485 693.526 485Z" fill="#C5CFD6"/>
<path d="M680.502 506.717C684.568 506.717 687.864 503.423 687.864 499.359C687.864 495.295 684.568 492 680.502 492C676.437 492 673.141 495.295 673.141 499.359C673.141 503.423 676.437 506.717 680.502 506.717Z" fill="white"/>
<path d="M690.624 508.557H670.38C669.618 508.557 669 509.174 669 509.936C669 510.698 669.618 511.316 670.38 511.316H690.624C691.387 511.316 692.005 510.698 692.005 509.936C692.005 509.174 691.387 508.557 690.624 508.557Z" fill="white"/>
<path d="M686.944 513.155H674.061C673.299 513.155 672.681 513.773 672.681 514.535C672.681 515.297 673.299 515.915 674.061 515.915H686.944C687.706 515.915 688.324 515.297 688.324 514.535C688.324 513.773 687.706 513.155 686.944 513.155Z" fill="white"/>
<line x1="547.5" y1="478.5" x2="636.5" y2="478.5" stroke="white" stroke-width="5" stroke-linecap="round"/>
<line x1="547.5" y1="492.5" x2="594.5" y2="492.5" stroke="white" stroke-width="5" stroke-linecap="round"/>
<line x1="547.5" y1="506.5" x2="614.5" y2="506.5" stroke="white" stroke-width="5" stroke-linecap="round"/>
<line x1="547.5" y1="536.5" x2="650.5" y2="536.5" stroke="white" stroke-width="5" stroke-linecap="round"/>
<line x1="547.5" y1="548.5" x2="636.5" y2="548.5" stroke="white" stroke-width="5" stroke-linecap="round"/>
<rect x="527" y="94" width="87" height="41" rx="5" fill="#C5CFD6"/>
<path d="M578.874 100.2L564 127.142" stroke="white" stroke-width="3" stroke-linecap="round"/>
<path d="M557.917 106.187C558.573 105.68 558.693 104.738 558.187 104.083C557.68 103.427 556.738 103.307 556.083 103.813L557.917 106.187ZM556.083 123.187C556.738 123.693 557.68 123.573 558.187 122.917C558.693 122.262 558.573 121.32 557.917 120.813L556.083 123.187ZM556.083 103.813L547.131 110.731L548.965 113.104L557.917 106.187L556.083 103.813ZM547.131 116.269L556.083 123.187L557.917 120.813L548.965 113.896L547.131 116.269ZM547.131 110.731C545.318 112.132 545.318 114.868 547.131 116.269L548.965 113.896C548.706 113.695 548.706 113.305 548.965 113.104L547.131 110.731Z" fill="white"/>
<path d="M585.083 106.187C584.427 105.68 584.307 104.738 584.813 104.083C585.32 103.427 586.262 103.307 586.917 103.813L585.083 106.187ZM586.917 123.187C586.262 123.693 585.32 123.573 584.813 122.917C584.307 122.262 584.427 121.32 585.083 120.813L586.917 123.187ZM586.917 103.813L595.869 110.731L594.035 113.104L585.083 106.187L586.917 103.813ZM595.869 116.269L586.917 123.187L585.083 120.813L594.035 113.896L595.869 116.269ZM595.869 110.731C597.682 112.132 597.682 114.868 595.869 116.269L594.035 113.896C594.294 113.695 594.294 113.305 594.035 113.104L595.869 110.731Z" fill="white"/>
<defs>
<linearGradient id="paint0_linear" x1="619" y1="431" x2="619" y2="576" gradientUnits="userSpaceOnUse">
<stop stop-color="#EDEDED"/>
<stop offset="1" stop-color="#AFB9C5"/>
</linearGradient>
</defs>
</svg>
