<svg width="144" height="144" viewBox="0 0 144 144" fill="none" xmlns="http://www.w3.org/2000/svg">
<circle cx="72" cy="72" r="70" fill="white" stroke="#93C9FE" stroke-width="4"/>
<path d="M96 15.8048C98.8098 15.8048 103.805 14.2439 105.951 13.4634H110.049L125.854 29.2683L134.049 42.7317L141.073 60.878L138.732 66.7317C137.171 70.6341 134.049 79.2585 134.049 82.5365C134.049 86.6341 134.634 90.7317 134.049 91.9024C133.58 92.839 129.561 95.4146 127.61 96.5853V100.098C126.829 101.073 124.566 103.844 121.756 107.122C118.244 111.219 112.39 113.561 111.22 112.39C110.049 111.219 110.049 104.195 110.049 100.098V85.4634C110.049 83.7073 108.293 79.6097 108.293 78.439C108.293 77.5024 107.512 74.1463 107.122 72.5853C106.732 72.1951 105.132 71.1805 101.854 70.2439C97.7561 69.0731 93.6585 71.4146 91.3171 72C88.9756 72.5853 88.9756 70.2439 85.4634 70.2439C81.9512 70.2439 78.439 63.2195 77.8537 62.6341C77.2683 62.0487 76.6829 57.9512 76.6829 56.1951C76.6829 54.439 75.5122 51.5122 75.5122 50.3414C75.5122 49.1707 77.8537 46.2439 79.6098 44.4878C81.0146 43.0829 82.9268 41.9512 83.7073 41.5609V37.4634C83.7073 35.7073 82.5366 35.1219 80.7805 33.9512C79.0244 32.7805 82.5366 29.2683 82.5366 26.9268C82.5366 25.0536 84.0976 24.9756 84.8781 25.1707C84.2927 24.9756 83.0049 24.117 82.5366 22.2439C82.0683 20.3707 84.2927 20.6829 85.4634 21.0731L88.9756 15.8048H96Z" fill="#93C9FE" stroke="#93C9FE"/>
<path d="M42.7317 15.8051C41.3268 16.7417 37.6585 13.066 36.878 11.7002C31.4146 15.6026 21.4244 25.288 18.1463 28.0978C14.0487 31.61 9.95119 42.1465 7.60973 44.488C5.73656 46.3612 4.48778 58.5368 4.09753 64.3904L6.439 67.3173C7.21949 67.3173 8.78046 67.4343 8.78046 67.9026C8.78046 68.3709 9.56095 69.6587 9.95119 70.2441L12.878 72.0002C12.878 72.7807 12.9951 74.5758 13.4634 75.5124C13.9317 76.449 16 77.0734 16.9756 77.2685V81.3661C16.9756 83.1222 17.5609 86.049 17.5609 86.6344C17.5609 87.2197 15.2195 88.9758 15.8049 90.1465C16.3902 91.3173 15.2195 94.8295 15.2195 95.4148C15.2195 96.0002 22.2439 105.951 23.4146 106.537C24.5853 107.122 28.0975 108.293 29.2683 108.878C30.439 109.464 36.878 125.854 38.6341 128.195C40.3902 130.537 48 135.805 50.9268 135.805C53.8536 135.805 53.2683 134.634 53.2683 133.464C53.2683 132.293 49.1707 128.195 49.7561 128.195C50.2244 128.195 52.2927 127.415 53.2683 127.025C52.878 126.049 51.9805 123.981 51.5122 123.512C50.9268 122.927 52.6829 118.244 53.2683 117.073C53.8536 115.903 57.9512 112.39 59.1219 111.22C60.0585 110.283 60.2927 106.537 60.2927 104.781C61.2683 103.025 63.3366 99.0441 63.8049 97.1709C64.3902 94.8295 62.6341 93.0734 62.0488 91.9026C61.4634 90.7319 56.1951 90.7319 55.0244 90.7319C54.0878 90.7319 48.7805 88.0002 46.2439 86.6344C45.4634 85.6587 43.4341 83.4734 41.5609 82.5368C39.6878 81.6002 38.439 81.7563 38.0488 81.9514C37.4634 81.3661 36.0585 80.0783 35.1219 79.61C33.9512 79.0246 28.0975 77.8539 28.0975 76.6831C28.0975 75.7465 22.2439 73.5612 19.317 72.5856C18.9268 71.4148 18.1463 68.7222 18.1463 67.3173C18.1463 65.9124 16.1951 64.7807 15.2195 64.3904C14.0488 64.0002 11.5902 62.9856 11.1219 62.049C10.5366 60.8783 11.7073 56.7807 12.878 53.8539C13.8146 51.5124 16.7805 51.3173 18.1463 51.5124C18.3414 53.4636 18.8488 57.4831 19.317 57.9514C19.9024 58.5368 22.2439 57.3661 23.4146 55.61C24.3512 54.2051 23.8048 50.3417 23.4146 48.5856C25.1707 47.4148 28.8 44.8392 29.2683 43.9026C29.8536 42.7319 30.439 40.9758 31.0244 39.2197C31.6097 37.4636 33.3658 39.2197 36.2927 39.2197C39.2195 39.2197 35.7073 35.1221 36.878 35.1221C38.0488 35.1221 39.8048 35.1221 40.9756 34.5368C42.1463 33.9514 45.0731 32.1953 46.2439 31.61C47.4146 31.0246 46.2439 30.4392 45.0731 29.2685C43.9024 28.0978 48.5853 26.927 49.7561 26.3417C50.9268 25.7563 51.5122 24.0002 51.5122 21.6587C51.5122 19.7856 50.3414 16.5856 49.7561 15.2197H47.4146C46.439 15.0246 44.1366 14.8685 42.7317 15.8051Z" fill="#93C9FE" stroke="#93C9FE"/>
<path d="M50.7874 61.1076C55.0404 56.8546 61.9357 56.8546 66.1886 61.1076L86.8689 81.7878L71.4677 97.189L50.7874 76.5088C46.5345 72.2558 46.5345 65.3605 50.7874 61.1076Z" fill="white" stroke="#E03271" stroke-width="3"/>
<path d="M92.5371 60.7183C96.79 64.9713 96.79 71.8666 92.5371 76.1195L71.4677 97.1889L56.0665 81.7877L77.1358 60.7183C81.3888 56.4654 88.2841 56.4654 92.5371 60.7183Z" fill="#0078E8" stroke="#E03271" stroke-width="3"/>
<path d="M52.0288 57.3834C56.2818 53.1305 63.1771 53.1305 67.43 57.3834L88.1103 78.0637L72.7091 93.4649L52.0288 72.7846C47.7759 68.5317 47.7759 61.6364 52.0288 57.3834Z" fill="white" stroke="#E03271" stroke-width="3"/>
<path d="M93.7785 56.9942C98.0314 61.2471 98.0314 68.1425 93.7785 72.3954L72.7091 93.4647L57.3079 78.0635L78.3772 56.9942C82.6302 52.7413 89.5255 52.7413 93.7785 56.9942Z" fill="white" stroke="#E03271" stroke-width="3"/>
<path d="M50 72.5L72 95" stroke="#E03271" stroke-width="2"/>
</svg>
