<svg width="196" height="185" viewBox="0 0 196 185" fill="none" xmlns="http://www.w3.org/2000/svg">
<path d="M147.426 10.6465C165.805 20.1652 183.235 35.157 191.179 54.3133C199.123 73.5886 197.345 97.1472 185.132 111.782C172.8 126.417 149.916 132.009 132.249 145.216C114.582 158.305 102.25 179.127 86.3615 183.886C70.4729 188.645 51.1456 177.461 35.9684 163.54C20.9098 149.5 10.0012 132.604 4.19114 114.281C-1.50031 95.8384 -2.09317 75.9682 6.79972 62.4042C15.6926 48.8401 33.9527 41.7011 49.3671 31.2306C64.9 20.7601 77.35 6.95803 93.3573 2.07973C109.364 -2.79858 128.929 1.24684 147.426 10.6465Z" fill="#EDEDED"/>
</svg>
